<mxfile host="app.diagrams.net" modified="2024-05-27T11:23:02.491Z" agent="Mozilla/5.0 (Windows NT 10.0; Win64; x64) AppleWebKit/537.36 (KHTML, like Gecko) Chrome/124.0.0.0 Safari/537.36" etag="2ErRzzsoQHG60mDy0Dwm" version="24.4.8" type="device" pages="6">
  <diagram name="UseCaseDiagram" id="D8vBs4jYtEJ9uU3RMqsH">
    <mxGraphModel dx="1219" dy="638" grid="1" gridSize="10" guides="1" tooltips="1" connect="1" arrows="1" fold="1" page="0" pageScale="1" pageWidth="1100" pageHeight="850" math="0" shadow="0">
      <root>
        <mxCell id="0" />
        <mxCell id="1" parent="0" />
        <mxCell id="bC8PKClyMauXgTLHqdZ6-101" style="edgeStyle=orthogonalEdgeStyle;orthogonalLoop=1;jettySize=auto;html=1;entryX=0;entryY=0.5;entryDx=0;entryDy=0;" edge="1" parent="1" source="bC8PKClyMauXgTLHqdZ6-2" target="bC8PKClyMauXgTLHqdZ6-99">
          <mxGeometry relative="1" as="geometry" />
        </mxCell>
        <mxCell id="bC8PKClyMauXgTLHqdZ6-2" value="Customer" style="shape=umlActor;verticalLabelPosition=bottom;verticalAlign=top;html=1;rounded=0;" vertex="1" parent="1">
          <mxGeometry x="110" y="80" width="30" height="60" as="geometry" />
        </mxCell>
        <mxCell id="bC8PKClyMauXgTLHqdZ6-90" style="edgeStyle=orthogonalEdgeStyle;orthogonalLoop=1;jettySize=auto;html=1;entryX=0;entryY=0.5;entryDx=0;entryDy=0;" edge="1" parent="1" source="bC8PKClyMauXgTLHqdZ6-37" target="bC8PKClyMauXgTLHqdZ6-47">
          <mxGeometry relative="1" as="geometry" />
        </mxCell>
        <mxCell id="bC8PKClyMauXgTLHqdZ6-91" value="No" style="edgeLabel;html=1;align=center;verticalAlign=middle;resizable=0;points=[];" vertex="1" connectable="0" parent="bC8PKClyMauXgTLHqdZ6-90">
          <mxGeometry y="1" relative="1" as="geometry">
            <mxPoint x="-10" y="1" as="offset" />
          </mxGeometry>
        </mxCell>
        <mxCell id="bC8PKClyMauXgTLHqdZ6-92" style="edgeStyle=orthogonalEdgeStyle;orthogonalLoop=1;jettySize=auto;html=1;entryX=0.5;entryY=0;entryDx=0;entryDy=0;" edge="1" parent="1" source="bC8PKClyMauXgTLHqdZ6-37" target="bC8PKClyMauXgTLHqdZ6-46">
          <mxGeometry relative="1" as="geometry" />
        </mxCell>
        <mxCell id="bC8PKClyMauXgTLHqdZ6-93" value="Yes" style="edgeLabel;html=1;align=center;verticalAlign=middle;resizable=0;points=[];" vertex="1" connectable="0" parent="bC8PKClyMauXgTLHqdZ6-92">
          <mxGeometry x="0.5267" y="1" relative="1" as="geometry">
            <mxPoint x="-1" y="-8" as="offset" />
          </mxGeometry>
        </mxCell>
        <mxCell id="bC8PKClyMauXgTLHqdZ6-37" value="Existing&amp;nbsp;&lt;div&gt;User&lt;/div&gt;" style="rhombus;whiteSpace=wrap;html=1;rounded=1;fillColor=#ffe6cc;strokeColor=#d79b00;" vertex="1" parent="1">
          <mxGeometry x="270" y="70" width="80" height="80" as="geometry" />
        </mxCell>
        <mxCell id="bC8PKClyMauXgTLHqdZ6-49" style="edgeStyle=orthogonalEdgeStyle;orthogonalLoop=1;jettySize=auto;html=1;entryX=0.5;entryY=0;entryDx=0;entryDy=0;" edge="1" parent="1" source="bC8PKClyMauXgTLHqdZ6-46" target="bC8PKClyMauXgTLHqdZ6-48">
          <mxGeometry relative="1" as="geometry" />
        </mxCell>
        <mxCell id="bC8PKClyMauXgTLHqdZ6-46" value="Login Page" style="rounded=1;whiteSpace=wrap;html=1;fillColor=#dae8fc;strokeColor=#6c8ebf;" vertex="1" parent="1">
          <mxGeometry x="259" y="190" width="100" height="40" as="geometry" />
        </mxCell>
        <mxCell id="bC8PKClyMauXgTLHqdZ6-55" style="edgeStyle=orthogonalEdgeStyle;orthogonalLoop=1;jettySize=auto;html=1;entryX=1;entryY=0.5;entryDx=0;entryDy=0;" edge="1" parent="1" source="bC8PKClyMauXgTLHqdZ6-47" target="bC8PKClyMauXgTLHqdZ6-46">
          <mxGeometry relative="1" as="geometry">
            <Array as="points">
              <mxPoint x="450" y="210" />
            </Array>
          </mxGeometry>
        </mxCell>
        <mxCell id="bC8PKClyMauXgTLHqdZ6-47" value="Create Login" style="rounded=1;whiteSpace=wrap;html=1;fillColor=#dae8fc;strokeColor=#6c8ebf;" vertex="1" parent="1">
          <mxGeometry x="390" y="85" width="110" height="50" as="geometry" />
        </mxCell>
        <mxCell id="bC8PKClyMauXgTLHqdZ6-51" style="edgeStyle=orthogonalEdgeStyle;orthogonalLoop=1;jettySize=auto;html=1;entryX=0;entryY=0.5;entryDx=0;entryDy=0;" edge="1" parent="1" source="bC8PKClyMauXgTLHqdZ6-48" target="bC8PKClyMauXgTLHqdZ6-50">
          <mxGeometry relative="1" as="geometry" />
        </mxCell>
        <mxCell id="bC8PKClyMauXgTLHqdZ6-52" value="Yes" style="edgeLabel;html=1;align=center;verticalAlign=middle;resizable=0;points=[];" vertex="1" connectable="0" parent="bC8PKClyMauXgTLHqdZ6-51">
          <mxGeometry x="-0.048" y="2" relative="1" as="geometry">
            <mxPoint as="offset" />
          </mxGeometry>
        </mxCell>
        <mxCell id="bC8PKClyMauXgTLHqdZ6-53" style="edgeStyle=orthogonalEdgeStyle;orthogonalLoop=1;jettySize=auto;html=1;entryX=0;entryY=0.5;entryDx=0;entryDy=0;exitX=0;exitY=0.5;exitDx=0;exitDy=0;" edge="1" parent="1" source="bC8PKClyMauXgTLHqdZ6-48" target="bC8PKClyMauXgTLHqdZ6-46">
          <mxGeometry relative="1" as="geometry">
            <Array as="points">
              <mxPoint x="230" y="300" />
              <mxPoint x="230" y="210" />
            </Array>
          </mxGeometry>
        </mxCell>
        <mxCell id="bC8PKClyMauXgTLHqdZ6-54" value="No" style="edgeLabel;html=1;align=center;verticalAlign=middle;resizable=0;points=[];" vertex="1" connectable="0" parent="bC8PKClyMauXgTLHqdZ6-53">
          <mxGeometry x="0.0713" relative="1" as="geometry">
            <mxPoint as="offset" />
          </mxGeometry>
        </mxCell>
        <mxCell id="bC8PKClyMauXgTLHqdZ6-48" value="Login Successful?" style="rhombus;whiteSpace=wrap;html=1;rounded=1;fillColor=#ffe6cc;strokeColor=#d79b00;" vertex="1" parent="1">
          <mxGeometry x="269" y="260" width="80" height="80" as="geometry" />
        </mxCell>
        <mxCell id="bC8PKClyMauXgTLHqdZ6-57" style="edgeStyle=orthogonalEdgeStyle;orthogonalLoop=1;jettySize=auto;html=1;entryX=0;entryY=0.5;entryDx=0;entryDy=0;" edge="1" parent="1" source="bC8PKClyMauXgTLHqdZ6-50" target="bC8PKClyMauXgTLHqdZ6-56">
          <mxGeometry relative="1" as="geometry" />
        </mxCell>
        <mxCell id="bC8PKClyMauXgTLHqdZ6-60" style="edgeStyle=orthogonalEdgeStyle;orthogonalLoop=1;jettySize=auto;html=1;entryX=0;entryY=0.5;entryDx=0;entryDy=0;" edge="1" parent="1" source="bC8PKClyMauXgTLHqdZ6-50" target="bC8PKClyMauXgTLHqdZ6-59">
          <mxGeometry relative="1" as="geometry" />
        </mxCell>
        <mxCell id="bC8PKClyMauXgTLHqdZ6-62" style="edgeStyle=orthogonalEdgeStyle;orthogonalLoop=1;jettySize=auto;html=1;entryX=0;entryY=0.5;entryDx=0;entryDy=0;" edge="1" parent="1" source="bC8PKClyMauXgTLHqdZ6-50" target="bC8PKClyMauXgTLHqdZ6-61">
          <mxGeometry relative="1" as="geometry" />
        </mxCell>
        <mxCell id="-2PWs7XCOxY5oWaYxW-I-2" style="edgeStyle=orthogonalEdgeStyle;orthogonalLoop=1;jettySize=auto;html=1;entryX=0;entryY=0.5;entryDx=0;entryDy=0;" edge="1" parent="1" source="bC8PKClyMauXgTLHqdZ6-50" target="-2PWs7XCOxY5oWaYxW-I-1">
          <mxGeometry relative="1" as="geometry" />
        </mxCell>
        <mxCell id="bC8PKClyMauXgTLHqdZ6-50" value="View Products&amp;nbsp;&lt;div&gt;Page&lt;/div&gt;" style="rounded=1;whiteSpace=wrap;html=1;fillColor=#dae8fc;strokeColor=#6c8ebf;" vertex="1" parent="1">
          <mxGeometry x="390" y="276.5" width="115" height="49" as="geometry" />
        </mxCell>
        <mxCell id="bC8PKClyMauXgTLHqdZ6-66" style="edgeStyle=orthogonalEdgeStyle;orthogonalLoop=1;jettySize=auto;html=1;entryX=0.5;entryY=0;entryDx=0;entryDy=0;" edge="1" parent="1" source="bC8PKClyMauXgTLHqdZ6-56" target="bC8PKClyMauXgTLHqdZ6-59">
          <mxGeometry relative="1" as="geometry" />
        </mxCell>
        <mxCell id="bC8PKClyMauXgTLHqdZ6-56" value="Search Product (Search Box)" style="rounded=1;whiteSpace=wrap;html=1;fillColor=#dae8fc;strokeColor=#6c8ebf;" vertex="1" parent="1">
          <mxGeometry x="545" y="184" width="120" height="60" as="geometry" />
        </mxCell>
        <mxCell id="bC8PKClyMauXgTLHqdZ6-67" style="edgeStyle=orthogonalEdgeStyle;orthogonalLoop=1;jettySize=auto;html=1;entryX=0.5;entryY=0;entryDx=0;entryDy=0;" edge="1" parent="1" source="bC8PKClyMauXgTLHqdZ6-59" target="bC8PKClyMauXgTLHqdZ6-61">
          <mxGeometry relative="1" as="geometry" />
        </mxCell>
        <mxCell id="bC8PKClyMauXgTLHqdZ6-59" value="Filter Products&lt;div&gt;(DropDown)&lt;/div&gt;" style="rounded=1;whiteSpace=wrap;html=1;fillColor=#dae8fc;strokeColor=#6c8ebf;" vertex="1" parent="1">
          <mxGeometry x="545" y="271" width="120" height="60" as="geometry" />
        </mxCell>
        <mxCell id="bC8PKClyMauXgTLHqdZ6-107" style="edgeStyle=orthogonalEdgeStyle;orthogonalLoop=1;jettySize=auto;html=1;entryX=0;entryY=0.5;entryDx=0;entryDy=0;" edge="1" parent="1" source="bC8PKClyMauXgTLHqdZ6-61" target="bC8PKClyMauXgTLHqdZ6-106">
          <mxGeometry relative="1" as="geometry" />
        </mxCell>
        <mxCell id="bC8PKClyMauXgTLHqdZ6-61" value="View Available Products" style="rounded=1;whiteSpace=wrap;html=1;fillColor=#dae8fc;strokeColor=#6c8ebf;" vertex="1" parent="1">
          <mxGeometry x="545" y="359" width="120" height="60" as="geometry" />
        </mxCell>
        <mxCell id="bC8PKClyMauXgTLHqdZ6-81" style="edgeStyle=orthogonalEdgeStyle;orthogonalLoop=1;jettySize=auto;html=1;entryX=0.5;entryY=0;entryDx=0;entryDy=0;" edge="1" parent="1" source="bC8PKClyMauXgTLHqdZ6-68" target="bC8PKClyMauXgTLHqdZ6-72">
          <mxGeometry relative="1" as="geometry" />
        </mxCell>
        <mxCell id="bC8PKClyMauXgTLHqdZ6-68" value="Add to&amp;nbsp;&lt;div&gt;Shopping cart&lt;/div&gt;" style="rounded=1;whiteSpace=wrap;html=1;fillColor=#dae8fc;strokeColor=#6c8ebf;" vertex="1" parent="1">
          <mxGeometry x="939" y="359" width="101" height="61" as="geometry" />
        </mxCell>
        <mxCell id="bC8PKClyMauXgTLHqdZ6-77" style="edgeStyle=orthogonalEdgeStyle;orthogonalLoop=1;jettySize=auto;html=1;entryX=0;entryY=0.5;entryDx=0;entryDy=0;" edge="1" parent="1" source="bC8PKClyMauXgTLHqdZ6-70" target="bC8PKClyMauXgTLHqdZ6-68">
          <mxGeometry relative="1" as="geometry" />
        </mxCell>
        <mxCell id="bC8PKClyMauXgTLHqdZ6-78" value="Yes" style="edgeLabel;html=1;align=center;verticalAlign=middle;resizable=0;points=[];" vertex="1" connectable="0" parent="bC8PKClyMauXgTLHqdZ6-77">
          <mxGeometry x="-0.1429" y="-3" relative="1" as="geometry">
            <mxPoint y="-3" as="offset" />
          </mxGeometry>
        </mxCell>
        <mxCell id="bC8PKClyMauXgTLHqdZ6-79" style="edgeStyle=orthogonalEdgeStyle;orthogonalLoop=1;jettySize=auto;html=1;entryX=0.5;entryY=1;entryDx=0;entryDy=0;exitX=0.5;exitY=1;exitDx=0;exitDy=0;" edge="1" parent="1" source="bC8PKClyMauXgTLHqdZ6-70" target="bC8PKClyMauXgTLHqdZ6-61">
          <mxGeometry relative="1" as="geometry">
            <Array as="points">
              <mxPoint x="858" y="460" />
              <mxPoint x="605" y="460" />
            </Array>
          </mxGeometry>
        </mxCell>
        <mxCell id="bC8PKClyMauXgTLHqdZ6-80" value="No" style="edgeLabel;html=1;align=center;verticalAlign=middle;resizable=0;points=[];" vertex="1" connectable="0" parent="bC8PKClyMauXgTLHqdZ6-79">
          <mxGeometry x="-0.8357" y="-1" relative="1" as="geometry">
            <mxPoint x="1" y="-15" as="offset" />
          </mxGeometry>
        </mxCell>
        <mxCell id="bC8PKClyMauXgTLHqdZ6-70" value="Is Qty Available?" style="rhombus;whiteSpace=wrap;html=1;rounded=1;fillColor=#ffe6cc;strokeColor=#d79b00;" vertex="1" parent="1">
          <mxGeometry x="818" y="349" width="80" height="80" as="geometry" />
        </mxCell>
        <mxCell id="bC8PKClyMauXgTLHqdZ6-82" style="edgeStyle=orthogonalEdgeStyle;orthogonalLoop=1;jettySize=auto;html=1;entryX=0;entryY=0.5;entryDx=0;entryDy=0;" edge="1" parent="1" source="bC8PKClyMauXgTLHqdZ6-72" target="bC8PKClyMauXgTLHqdZ6-94">
          <mxGeometry relative="1" as="geometry">
            <mxPoint x="1360" y="419" as="targetPoint" />
          </mxGeometry>
        </mxCell>
        <mxCell id="bC8PKClyMauXgTLHqdZ6-115" style="edgeStyle=orthogonalEdgeStyle;orthogonalLoop=1;jettySize=auto;html=1;entryX=0;entryY=0.5;entryDx=0;entryDy=0;" edge="1" parent="1" source="bC8PKClyMauXgTLHqdZ6-72" target="bC8PKClyMauXgTLHqdZ6-112">
          <mxGeometry relative="1" as="geometry" />
        </mxCell>
        <mxCell id="bC8PKClyMauXgTLHqdZ6-116" style="edgeStyle=orthogonalEdgeStyle;orthogonalLoop=1;jettySize=auto;html=1;entryX=0;entryY=0.5;entryDx=0;entryDy=0;" edge="1" parent="1" source="bC8PKClyMauXgTLHqdZ6-72" target="bC8PKClyMauXgTLHqdZ6-113">
          <mxGeometry relative="1" as="geometry" />
        </mxCell>
        <mxCell id="bC8PKClyMauXgTLHqdZ6-117" style="edgeStyle=orthogonalEdgeStyle;orthogonalLoop=1;jettySize=auto;html=1;entryX=0;entryY=0.5;entryDx=0;entryDy=0;" edge="1" parent="1" source="bC8PKClyMauXgTLHqdZ6-72" target="bC8PKClyMauXgTLHqdZ6-114">
          <mxGeometry relative="1" as="geometry" />
        </mxCell>
        <mxCell id="bC8PKClyMauXgTLHqdZ6-72" value="View&amp;nbsp;&lt;div&gt;Shopping cart&lt;/div&gt;" style="rounded=1;whiteSpace=wrap;html=1;fillColor=#dae8fc;strokeColor=#6c8ebf;" vertex="1" parent="1">
          <mxGeometry x="939" y="470" width="101" height="61" as="geometry" />
        </mxCell>
        <mxCell id="bC8PKClyMauXgTLHqdZ6-133" style="edgeStyle=orthogonalEdgeStyle;orthogonalLoop=1;jettySize=auto;html=1;" edge="1" parent="1" target="bC8PKClyMauXgTLHqdZ6-132">
          <mxGeometry relative="1" as="geometry">
            <mxPoint x="1280" y="412" as="sourcePoint" />
            <mxPoint x="1320" y="411" as="targetPoint" />
          </mxGeometry>
        </mxCell>
        <mxCell id="bC8PKClyMauXgTLHqdZ6-94" value="Checkout&amp;nbsp;" style="rounded=1;whiteSpace=wrap;html=1;fillColor=#dae8fc;strokeColor=#6c8ebf;" vertex="1" parent="1">
          <mxGeometry x="1101" y="390" width="179" height="40" as="geometry" />
        </mxCell>
        <mxCell id="bC8PKClyMauXgTLHqdZ6-103" style="edgeStyle=orthogonalEdgeStyle;orthogonalLoop=1;jettySize=auto;html=1;" edge="1" parent="1" source="bC8PKClyMauXgTLHqdZ6-99" target="bC8PKClyMauXgTLHqdZ6-37">
          <mxGeometry relative="1" as="geometry" />
        </mxCell>
        <mxCell id="bC8PKClyMauXgTLHqdZ6-99" value="Open eComm Website" style="rounded=1;whiteSpace=wrap;html=1;fillColor=#dae8fc;strokeColor=#6c8ebf;" vertex="1" parent="1">
          <mxGeometry x="170" y="87.5" width="80" height="45" as="geometry" />
        </mxCell>
        <mxCell id="bC8PKClyMauXgTLHqdZ6-108" style="edgeStyle=orthogonalEdgeStyle;orthogonalLoop=1;jettySize=auto;html=1;entryX=0;entryY=0.5;entryDx=0;entryDy=0;" edge="1" parent="1" source="bC8PKClyMauXgTLHqdZ6-106" target="bC8PKClyMauXgTLHqdZ6-70">
          <mxGeometry relative="1" as="geometry" />
        </mxCell>
        <mxCell id="bC8PKClyMauXgTLHqdZ6-106" value="View Product Details" style="rounded=1;whiteSpace=wrap;html=1;fillColor=#dae8fc;strokeColor=#6c8ebf;" vertex="1" parent="1">
          <mxGeometry x="693" y="359" width="100" height="60" as="geometry" />
        </mxCell>
        <mxCell id="bC8PKClyMauXgTLHqdZ6-109" value="User Profile Management" style="rounded=1;whiteSpace=wrap;html=1;fillColor=#dae8fc;strokeColor=#6c8ebf;" vertex="1" parent="1">
          <mxGeometry x="545" y="605" width="77.5" height="50" as="geometry" />
        </mxCell>
        <mxCell id="bC8PKClyMauXgTLHqdZ6-111" style="edgeStyle=orthogonalEdgeStyle;orthogonalLoop=1;jettySize=auto;html=1;entryX=0.012;entryY=0.64;entryDx=0;entryDy=0;entryPerimeter=0;" edge="1" parent="1" source="bC8PKClyMauXgTLHqdZ6-50" target="bC8PKClyMauXgTLHqdZ6-109">
          <mxGeometry relative="1" as="geometry">
            <Array as="points">
              <mxPoint x="520" y="301" />
              <mxPoint x="520" y="637" />
            </Array>
          </mxGeometry>
        </mxCell>
        <mxCell id="bC8PKClyMauXgTLHqdZ6-112" value="Update qty" style="rounded=1;whiteSpace=wrap;html=1;fillColor=#dae8fc;strokeColor=#6c8ebf;" vertex="1" parent="1">
          <mxGeometry x="1101" y="450" width="90" height="40" as="geometry" />
        </mxCell>
        <mxCell id="bC8PKClyMauXgTLHqdZ6-130" style="edgeStyle=orthogonalEdgeStyle;orthogonalLoop=1;jettySize=auto;html=1;entryX=0.75;entryY=1;entryDx=0;entryDy=0;" edge="1" parent="1" source="bC8PKClyMauXgTLHqdZ6-113" target="bC8PKClyMauXgTLHqdZ6-94">
          <mxGeometry relative="1" as="geometry">
            <mxPoint x="1340" y="420" as="targetPoint" />
            <Array as="points">
              <mxPoint x="1235" y="530" />
            </Array>
          </mxGeometry>
        </mxCell>
        <mxCell id="bC8PKClyMauXgTLHqdZ6-113" value="Remove items" style="rounded=1;whiteSpace=wrap;html=1;fillColor=#dae8fc;strokeColor=#6c8ebf;" vertex="1" parent="1">
          <mxGeometry x="1101" y="510" width="90" height="40" as="geometry" />
        </mxCell>
        <mxCell id="bC8PKClyMauXgTLHqdZ6-119" style="edgeStyle=orthogonalEdgeStyle;orthogonalLoop=1;jettySize=auto;html=1;" edge="1" parent="1" source="bC8PKClyMauXgTLHqdZ6-114" target="bC8PKClyMauXgTLHqdZ6-118">
          <mxGeometry relative="1" as="geometry" />
        </mxCell>
        <mxCell id="bC8PKClyMauXgTLHqdZ6-114" value="Cancel Order" style="rounded=1;whiteSpace=wrap;html=1;fillColor=#dae8fc;strokeColor=#6c8ebf;" vertex="1" parent="1">
          <mxGeometry x="1102" y="570" width="90" height="40" as="geometry" />
        </mxCell>
        <mxCell id="bC8PKClyMauXgTLHqdZ6-120" style="edgeStyle=orthogonalEdgeStyle;orthogonalLoop=1;jettySize=auto;html=1;entryX=0.5;entryY=1;entryDx=0;entryDy=0;exitX=0;exitY=0.5;exitDx=0;exitDy=0;" edge="1" parent="1" source="bC8PKClyMauXgTLHqdZ6-118" target="bC8PKClyMauXgTLHqdZ6-61">
          <mxGeometry relative="1" as="geometry">
            <mxPoint x="1110" y="730" as="targetPoint" />
            <Array as="points">
              <mxPoint x="770" y="670" />
              <mxPoint x="770" y="480" />
              <mxPoint x="605" y="480" />
            </Array>
          </mxGeometry>
        </mxCell>
        <mxCell id="bC8PKClyMauXgTLHqdZ6-122" value="Yes" style="edgeLabel;html=1;align=center;verticalAlign=middle;resizable=0;points=[];" vertex="1" connectable="0" parent="bC8PKClyMauXgTLHqdZ6-120">
          <mxGeometry x="-0.0436" y="1" relative="1" as="geometry">
            <mxPoint x="311" y="23" as="offset" />
          </mxGeometry>
        </mxCell>
        <mxCell id="bC8PKClyMauXgTLHqdZ6-121" style="edgeStyle=orthogonalEdgeStyle;orthogonalLoop=1;jettySize=auto;html=1;entryX=0;entryY=0.5;entryDx=0;entryDy=0;" edge="1" parent="1" source="bC8PKClyMauXgTLHqdZ6-118" target="bC8PKClyMauXgTLHqdZ6-124">
          <mxGeometry relative="1" as="geometry">
            <mxPoint x="1400" y="730" as="targetPoint" />
          </mxGeometry>
        </mxCell>
        <mxCell id="bC8PKClyMauXgTLHqdZ6-123" value="No" style="edgeLabel;html=1;align=center;verticalAlign=middle;resizable=0;points=[];" vertex="1" connectable="0" parent="bC8PKClyMauXgTLHqdZ6-121">
          <mxGeometry x="-0.1735" y="1" relative="1" as="geometry">
            <mxPoint x="-6" y="1" as="offset" />
          </mxGeometry>
        </mxCell>
        <mxCell id="bC8PKClyMauXgTLHqdZ6-118" value="Buy&amp;nbsp;&lt;div&gt;Another?&lt;/div&gt;" style="rhombus;whiteSpace=wrap;html=1;rounded=1;fillColor=#ffe6cc;strokeColor=#d79b00;" vertex="1" parent="1">
          <mxGeometry x="1107" y="630" width="80" height="80" as="geometry" />
        </mxCell>
        <mxCell id="bC8PKClyMauXgTLHqdZ6-124" value="" style="ellipse;html=1;shape=endState;fillColor=#000000;strokeColor=#ff0000;" vertex="1" parent="1">
          <mxGeometry x="1222" y="655" width="30" height="30" as="geometry" />
        </mxCell>
        <mxCell id="bC8PKClyMauXgTLHqdZ6-127" style="edgeStyle=orthogonalEdgeStyle;orthogonalLoop=1;jettySize=auto;html=1;entryX=0;entryY=0.5;entryDx=0;entryDy=0;" edge="1" parent="1" source="bC8PKClyMauXgTLHqdZ6-125" target="bC8PKClyMauXgTLHqdZ6-126">
          <mxGeometry relative="1" as="geometry" />
        </mxCell>
        <mxCell id="bC8PKClyMauXgTLHqdZ6-125" value="Place Order" style="rounded=1;whiteSpace=wrap;html=1;fillColor=#dae8fc;strokeColor=#6c8ebf;" vertex="1" parent="1">
          <mxGeometry x="1460" y="394" width="80" height="35" as="geometry" />
        </mxCell>
        <mxCell id="bC8PKClyMauXgTLHqdZ6-126" value="" style="ellipse;html=1;shape=endState;fillColor=#000000;strokeColor=#ff0000;" vertex="1" parent="1">
          <mxGeometry x="1580" y="396.5" width="30" height="30" as="geometry" />
        </mxCell>
        <mxCell id="bC8PKClyMauXgTLHqdZ6-131" style="edgeStyle=orthogonalEdgeStyle;orthogonalLoop=1;jettySize=auto;html=1;entryX=0.25;entryY=1;entryDx=0;entryDy=0;" edge="1" parent="1" source="bC8PKClyMauXgTLHqdZ6-112" target="bC8PKClyMauXgTLHqdZ6-94">
          <mxGeometry relative="1" as="geometry">
            <mxPoint x="1130" y="440" as="targetPoint" />
          </mxGeometry>
        </mxCell>
        <mxCell id="bC8PKClyMauXgTLHqdZ6-134" style="edgeStyle=orthogonalEdgeStyle;orthogonalLoop=1;jettySize=auto;html=1;entryX=0;entryY=0.5;entryDx=0;entryDy=0;" edge="1" parent="1" source="bC8PKClyMauXgTLHqdZ6-132" target="bC8PKClyMauXgTLHqdZ6-125">
          <mxGeometry relative="1" as="geometry" />
        </mxCell>
        <mxCell id="bC8PKClyMauXgTLHqdZ6-136" value="Yes" style="edgeLabel;html=1;align=center;verticalAlign=middle;resizable=0;points=[];" vertex="1" connectable="0" parent="bC8PKClyMauXgTLHqdZ6-134">
          <mxGeometry x="0.0049" relative="1" as="geometry">
            <mxPoint x="-4" y="-1" as="offset" />
          </mxGeometry>
        </mxCell>
        <mxCell id="bC8PKClyMauXgTLHqdZ6-132" value="Confirmed?" style="rhombus;whiteSpace=wrap;html=1;rounded=1;fillColor=#ffe6cc;strokeColor=#d79b00;" vertex="1" parent="1">
          <mxGeometry x="1329" y="372" width="80" height="80" as="geometry" />
        </mxCell>
        <mxCell id="bC8PKClyMauXgTLHqdZ6-140" value="" style="endArrow=none;dashed=1;html=1;dashPattern=1 3;strokeWidth=2;entryX=0.5;entryY=1;entryDx=0;entryDy=0;exitX=0.75;exitY=1;exitDx=0;exitDy=0;" edge="1" parent="1" source="bC8PKClyMauXgTLHqdZ6-61" target="bC8PKClyMauXgTLHqdZ6-132">
          <mxGeometry width="50" height="50" relative="1" as="geometry">
            <mxPoint x="1070" y="560" as="sourcePoint" />
            <mxPoint x="1120" y="510" as="targetPoint" />
            <Array as="points">
              <mxPoint x="630" y="620" />
              <mxPoint x="960" y="620" />
              <mxPoint x="1370" y="620" />
            </Array>
          </mxGeometry>
        </mxCell>
        <mxCell id="bC8PKClyMauXgTLHqdZ6-143" value="No" style="edgeLabel;html=1;align=center;verticalAlign=middle;resizable=0;points=[];" vertex="1" connectable="0" parent="bC8PKClyMauXgTLHqdZ6-140">
          <mxGeometry x="0.8471" y="1" relative="1" as="geometry">
            <mxPoint y="-67" as="offset" />
          </mxGeometry>
        </mxCell>
        <mxCell id="bC8PKClyMauXgTLHqdZ6-142" value="" style="endArrow=none;dashed=1;html=1;dashPattern=1 3;strokeWidth=2;entryX=0.5;entryY=1;entryDx=0;entryDy=0;" edge="1" parent="1" target="bC8PKClyMauXgTLHqdZ6-72">
          <mxGeometry width="50" height="50" relative="1" as="geometry">
            <mxPoint x="990" y="620" as="sourcePoint" />
            <mxPoint x="989" y="540" as="targetPoint" />
          </mxGeometry>
        </mxCell>
        <mxCell id="bC8PKClyMauXgTLHqdZ6-144" value="&lt;font style=&quot;font-size: 36px;&quot;&gt;Use Case Diagram&amp;nbsp;&lt;/font&gt;" style="text;html=1;align=center;verticalAlign=middle;whiteSpace=wrap;rounded=0;" vertex="1" parent="1">
          <mxGeometry x="50" y="10" width="390" height="30" as="geometry" />
        </mxCell>
        <mxCell id="-2PWs7XCOxY5oWaYxW-I-1" value="View Order History" style="rounded=1;whiteSpace=wrap;html=1;fillColor=#dae8fc;strokeColor=#6c8ebf;" vertex="1" parent="1">
          <mxGeometry x="545" y="500" width="120" height="60" as="geometry" />
        </mxCell>
        <mxCell id="f7-NI8N-0qKsjY6b5wMX-1" value="&lt;div style=&quot;text-align: center;&quot;&gt;&lt;span style=&quot;background-color: initial;&quot;&gt;Assignment&lt;/span&gt;&lt;/div&gt;&lt;div&gt;Add Checkout Process Details&lt;br&gt;&lt;div&gt;&lt;br&gt;&lt;/div&gt;&lt;div&gt;1. Add Shipping Address&lt;/div&gt;&lt;div&gt;2. Add Payment Method&lt;/div&gt;&lt;div&gt;Review Order Summary&lt;/div&gt;&lt;/div&gt;" style="text;html=1;align=left;verticalAlign=middle;whiteSpace=wrap;rounded=0;" vertex="1" parent="1">
          <mxGeometry x="1800" y="518.25" width="186" height="143.5" as="geometry" />
        </mxCell>
      </root>
    </mxGraphModel>
  </diagram>
  <diagram id="IMhQN2PCDtlXuI0Sai0W" name="DFD-Level 0 Diagram">
    <mxGraphModel dx="4688" dy="1111" grid="1" gridSize="10" guides="1" tooltips="1" connect="1" arrows="1" fold="1" page="0" pageScale="1" pageWidth="1100" pageHeight="850" math="0" shadow="0">
      <root>
        <mxCell id="0" />
        <mxCell id="1" parent="0" />
        <mxCell id="wuRIeNgx1pp-yTkGyNp3-9" style="edgeStyle=orthogonalEdgeStyle;orthogonalLoop=1;jettySize=auto;html=1;" edge="1" parent="1" source="c7EXmkyN89wsBHU4y6m5-1" target="wuRIeNgx1pp-yTkGyNp3-7">
          <mxGeometry relative="1" as="geometry" />
        </mxCell>
        <mxCell id="c7EXmkyN89wsBHU4y6m5-1" value="Actor" style="shape=umlActor;verticalLabelPosition=bottom;verticalAlign=top;html=1;outlineConnect=0;" vertex="1" parent="1">
          <mxGeometry x="-3160" y="15" width="30" height="60" as="geometry" />
        </mxCell>
        <mxCell id="zedM7CWCmA-2USHRPWeB-1" value="Ecommerce System" style="rounded=1;whiteSpace=wrap;html=1;fillColor=#dae8fc;strokeColor=#6c8ebf;" vertex="1" parent="1">
          <mxGeometry x="-2860" y="10" width="320" height="60" as="geometry" />
        </mxCell>
        <mxCell id="wuRIeNgx1pp-yTkGyNp3-4" value="Products Database" style="shape=cylinder;whiteSpace=wrap;html=1;boundedLbl=1;backgroundOutline=1;fillColor=#fff2cc;strokeColor=#d6b656;" vertex="1" parent="1">
          <mxGeometry x="-2840" y="230" width="80" height="90" as="geometry" />
        </mxCell>
        <mxCell id="wuRIeNgx1pp-yTkGyNp3-5" value="Orders Database" style="shape=cylinder;whiteSpace=wrap;html=1;boundedLbl=1;backgroundOutline=1;fillColor=#fff2cc;strokeColor=#d6b656;" vertex="1" parent="1">
          <mxGeometry x="-2530" y="200" width="80" height="90" as="geometry" />
        </mxCell>
        <mxCell id="wuRIeNgx1pp-yTkGyNp3-6" value="Payment Gateway Database" style="shape=cylinder;whiteSpace=wrap;html=1;boundedLbl=1;backgroundOutline=1;fillColor=#fff2cc;strokeColor=#d6b656;" vertex="1" parent="1">
          <mxGeometry x="-2540" y="-170" width="80" height="87.5" as="geometry" />
        </mxCell>
        <mxCell id="wuRIeNgx1pp-yTkGyNp3-7" value="" style="ellipse;html=1;shape=startState;fillColor=#000000;strokeColor=#ff0000;" vertex="1" parent="1">
          <mxGeometry x="-3110" y="30" width="30" height="30" as="geometry" />
        </mxCell>
        <mxCell id="wuRIeNgx1pp-yTkGyNp3-8" value="" style="edgeStyle=orthogonalEdgeStyle;html=1;verticalAlign=bottom;endArrow=open;endSize=8;strokeColor=#ff0000;" edge="1" source="wuRIeNgx1pp-yTkGyNp3-7" parent="1">
          <mxGeometry relative="1" as="geometry">
            <mxPoint x="-2860" y="45" as="targetPoint" />
          </mxGeometry>
        </mxCell>
        <mxCell id="IG467o61Fr92yhut6un1-1" value="&lt;font style=&quot;font-size: 14px;&quot;&gt;Browses product list&lt;br style=&quot;padding: 0px; margin: 0px;&quot;&gt;Searches products&lt;br style=&quot;padding: 0px; margin: 0px;&quot;&gt;Filters products&lt;br style=&quot;padding: 0px; margin: 0px;&quot;&gt;Views product details&lt;br style=&quot;padding: 0px; margin: 0px;&quot;&gt;Views shopping cart&lt;br style=&quot;padding: 0px; margin: 0px;&quot;&gt;Proceeds to checkout&lt;/font&gt;" style="edgeLabel;html=1;align=center;verticalAlign=middle;resizable=0;points=[];" vertex="1" connectable="0" parent="wuRIeNgx1pp-yTkGyNp3-8">
          <mxGeometry x="-0.0023" y="1" relative="1" as="geometry">
            <mxPoint x="-1" as="offset" />
          </mxGeometry>
        </mxCell>
        <mxCell id="QFkIETTAGo0Q95JQAObm-1" value="" style="endArrow=classic;html=1;exitX=0.185;exitY=1.027;exitDx=0;exitDy=0;exitPerimeter=0;entryX=0.345;entryY=-0.044;entryDx=0;entryDy=0;entryPerimeter=0;" edge="1" parent="1" source="zedM7CWCmA-2USHRPWeB-1" target="wuRIeNgx1pp-yTkGyNp3-4">
          <mxGeometry width="50" height="50" relative="1" as="geometry">
            <mxPoint x="-2760" y="150" as="sourcePoint" />
            <mxPoint x="-2710" y="100" as="targetPoint" />
            <Array as="points">
              <mxPoint x="-2870" y="180" />
            </Array>
          </mxGeometry>
        </mxCell>
        <mxCell id="0BWuSH7edBBS_txCwmhw-1" value="&lt;font style=&quot;font-size: 14px;&quot;&gt;Requests product list&lt;br style=&quot;padding: 0px; margin: 0px;&quot;&gt;Requests product details&lt;br style=&quot;padding: 0px; margin: 0px;&quot;&gt;Requests search results&lt;/font&gt;" style="edgeLabel;html=1;align=center;verticalAlign=middle;resizable=0;points=[];" vertex="1" connectable="0" parent="QFkIETTAGo0Q95JQAObm-1">
          <mxGeometry x="-0.3909" relative="1" as="geometry">
            <mxPoint x="-26" y="56" as="offset" />
          </mxGeometry>
        </mxCell>
        <mxCell id="0BWuSH7edBBS_txCwmhw-2" value="" style="endArrow=classic;html=1;exitX=0.64;exitY=-0.027;exitDx=0;exitDy=0;entryX=0.333;entryY=1.013;entryDx=0;entryDy=0;entryPerimeter=0;exitPerimeter=0;" edge="1" parent="1" source="wuRIeNgx1pp-yTkGyNp3-4" target="zedM7CWCmA-2USHRPWeB-1">
          <mxGeometry width="50" height="50" relative="1" as="geometry">
            <mxPoint x="-2660" y="250" as="sourcePoint" />
            <mxPoint x="-2610" y="200" as="targetPoint" />
            <Array as="points">
              <mxPoint x="-2750" y="200" />
            </Array>
          </mxGeometry>
        </mxCell>
        <mxCell id="4wIgqtE905kWbtJibzd8-1" value="&lt;font style=&quot;font-size: 14px;&quot;&gt;Sends product list&lt;br style=&quot;padding: 0px; margin: 0px;&quot;&gt;Sends product details&lt;br style=&quot;padding: 0px; margin: 0px;&quot;&gt;Sends search results&lt;/font&gt;" style="edgeLabel;html=1;align=center;verticalAlign=middle;resizable=0;points=[];" vertex="1" connectable="0" parent="0BWuSH7edBBS_txCwmhw-2">
          <mxGeometry x="-0.4137" y="-2" relative="1" as="geometry">
            <mxPoint x="8" y="-76" as="offset" />
          </mxGeometry>
        </mxCell>
        <mxCell id="4wIgqtE905kWbtJibzd8-2" value="" style="endArrow=classic;html=1;exitX=0.618;exitY=1.053;exitDx=0;exitDy=0;exitPerimeter=0;entryX=0.055;entryY=0.052;entryDx=0;entryDy=0;entryPerimeter=0;" edge="1" parent="1" source="zedM7CWCmA-2USHRPWeB-1" target="wuRIeNgx1pp-yTkGyNp3-5">
          <mxGeometry width="50" height="50" relative="1" as="geometry">
            <mxPoint x="-2660" y="150" as="sourcePoint" />
            <mxPoint x="-2610" y="100" as="targetPoint" />
            <Array as="points">
              <mxPoint x="-2630" y="180" />
            </Array>
          </mxGeometry>
        </mxCell>
        <mxCell id="7xqga395Ar9hV94t9koZ-1" value="&lt;font style=&quot;font-size: 14px;&quot;&gt;Sends cart details&lt;br style=&quot;padding: 0px; margin: 0px;&quot;&gt;Updates cart&lt;br style=&quot;padding: 0px; margin: 0px;&quot;&gt;Sends checkout request&lt;/font&gt;" style="edgeLabel;html=1;align=center;verticalAlign=middle;resizable=0;points=[];" vertex="1" connectable="0" parent="4wIgqtE905kWbtJibzd8-2">
          <mxGeometry x="-0.2924" y="-5" relative="1" as="geometry">
            <mxPoint x="22" y="32" as="offset" />
          </mxGeometry>
        </mxCell>
        <mxCell id="4wIgqtE905kWbtJibzd8-3" value="" style="endArrow=classic;html=1;entryX=0.805;entryY=1.027;entryDx=0;entryDy=0;entryPerimeter=0;exitX=0.405;exitY=0.018;exitDx=0;exitDy=0;exitPerimeter=0;" edge="1" parent="1" source="wuRIeNgx1pp-yTkGyNp3-5" target="zedM7CWCmA-2USHRPWeB-1">
          <mxGeometry width="50" height="50" relative="1" as="geometry">
            <mxPoint x="-2500" y="310" as="sourcePoint" />
            <mxPoint x="-2610" y="100" as="targetPoint" />
            <Array as="points">
              <mxPoint x="-2520" y="170" />
            </Array>
          </mxGeometry>
        </mxCell>
        <mxCell id="S9Ot15XHxmXQvbR2LPoA-1" value="&lt;font style=&quot;font-size: 14px;&quot;&gt;Sends current cart contents&lt;br style=&quot;padding: 0px; margin: 0px;&quot;&gt;Confirms checkout readiness&lt;/font&gt;" style="edgeLabel;html=1;align=center;verticalAlign=middle;resizable=0;points=[];" vertex="1" connectable="0" parent="4wIgqtE905kWbtJibzd8-3">
          <mxGeometry x="-0.2653" y="4" relative="1" as="geometry">
            <mxPoint x="7" y="-46" as="offset" />
          </mxGeometry>
        </mxCell>
        <mxCell id="2hknUChpmV8H51E1iE_D-1" value="" style="endArrow=classic;html=1;entryX=0;entryY=0.5;entryDx=0;entryDy=0;" edge="1" parent="1" target="wuRIeNgx1pp-yTkGyNp3-6">
          <mxGeometry width="50" height="50" relative="1" as="geometry">
            <mxPoint x="-2620" as="sourcePoint" />
            <mxPoint x="-2520" y="-100" as="targetPoint" />
            <Array as="points">
              <mxPoint x="-2620" y="-90" />
            </Array>
          </mxGeometry>
        </mxCell>
        <mxCell id="2hknUChpmV8H51E1iE_D-2" value="&lt;font style=&quot;font-size: 14px;&quot;&gt;Sends payment information&lt;/font&gt;" style="edgeLabel;html=1;align=center;verticalAlign=middle;resizable=0;points=[];" vertex="1" connectable="0" parent="2hknUChpmV8H51E1iE_D-1">
          <mxGeometry x="0.0445" relative="1" as="geometry">
            <mxPoint x="-40" y="-10" as="offset" />
          </mxGeometry>
        </mxCell>
        <mxCell id="2hknUChpmV8H51E1iE_D-4" value="" style="endArrow=classic;html=1;exitX=0.635;exitY=1.024;exitDx=0;exitDy=0;exitPerimeter=0;entryX=0.838;entryY=-0.04;entryDx=0;entryDy=0;entryPerimeter=0;" edge="1" parent="1" source="wuRIeNgx1pp-yTkGyNp3-6" target="zedM7CWCmA-2USHRPWeB-1">
          <mxGeometry width="50" height="50" relative="1" as="geometry">
            <mxPoint x="-2660" y="60" as="sourcePoint" />
            <mxPoint x="-2610" y="10" as="targetPoint" />
            <Array as="points">
              <mxPoint x="-2470" y="-40" />
            </Array>
          </mxGeometry>
        </mxCell>
        <mxCell id="oaxjDjipZUy1v_8F7wPY-1" value="&lt;font style=&quot;font-size: 14px;&quot;&gt;Sends payment confirmation&lt;br style=&quot;padding: 0px; margin: 0px;&quot;&gt;Sends payment failure&lt;/font&gt;" style="edgeLabel;html=1;align=center;verticalAlign=middle;resizable=0;points=[];" vertex="1" connectable="0" parent="2hknUChpmV8H51E1iE_D-4">
          <mxGeometry x="0.3938" y="-2" relative="1" as="geometry">
            <mxPoint x="48" y="-24" as="offset" />
          </mxGeometry>
        </mxCell>
        <mxCell id="yR2JWJWRVsmx4zI4E-ZS-1" value="&lt;font style=&quot;font-size: 36px;&quot;&gt;DFD Level 0 Diagram&amp;nbsp;&lt;/font&gt;" style="text;html=1;align=center;verticalAlign=middle;whiteSpace=wrap;rounded=0;" vertex="1" parent="1">
          <mxGeometry x="-3160" y="-220" width="400" height="30" as="geometry" />
        </mxCell>
        <mxCell id="tNSGaXKKtfpjyNzoaYVT-1" value="&lt;div style=&quot;text-align: center;&quot;&gt;&lt;span style=&quot;background-color: initial;&quot;&gt;Assignment&lt;/span&gt;&lt;/div&gt;&lt;div&gt;Add User Database&amp;nbsp;&lt;/div&gt;&lt;div&gt;&lt;br&gt;&lt;/div&gt;&lt;div&gt;Request from database&amp;nbsp;&lt;/div&gt;&lt;div&gt;&lt;span style=&quot;white-space: pre;&quot;&gt;&#x9;&lt;/span&gt;User details&lt;/div&gt;&lt;div&gt;&lt;span style=&quot;white-space: pre;&quot;&gt;&#x9;&lt;/span&gt;User Authentication details&lt;/div&gt;&lt;div&gt;Send to System&lt;/div&gt;&lt;div&gt;&lt;span style=&quot;white-space: pre;&quot;&gt;&#x9;&lt;/span&gt;User Details&lt;/div&gt;&lt;div&gt;&lt;span style=&quot;white-space: pre;&quot;&gt;&#x9;&lt;/span&gt;Valid user confirmation&lt;/div&gt;&lt;div&gt;&lt;br&gt;&lt;/div&gt;&lt;div&gt;&lt;br&gt;&lt;/div&gt;" style="text;html=1;align=left;verticalAlign=middle;whiteSpace=wrap;rounded=0;" vertex="1" parent="1">
          <mxGeometry x="-2120" y="200" width="186" height="143.5" as="geometry" />
        </mxCell>
      </root>
    </mxGraphModel>
  </diagram>
  <diagram id="d6UrIFTO36o7W3pRvTQS" name="DFD - Level 1 Diagram">
    <mxGraphModel dx="2366" dy="1148" grid="1" gridSize="10" guides="1" tooltips="1" connect="1" arrows="1" fold="1" page="0" pageScale="1" pageWidth="413" pageHeight="291" math="0" shadow="0">
      <root>
        <mxCell id="0" />
        <mxCell id="1" parent="0" />
        <mxCell id="VddGbrpunHcnu2wbQyqM-1" value="Actor" style="shape=umlActor;verticalLabelPosition=bottom;verticalAlign=top;html=1;outlineConnect=0;" vertex="1" parent="1">
          <mxGeometry x="-570" y="210" width="30" height="60" as="geometry" />
        </mxCell>
        <mxCell id="_cBp6xbC-jW82KetdLhI-2" value="" style="rounded=1;whiteSpace=wrap;html=1;fillColor=#dae8fc;strokeColor=#6c8ebf;" vertex="1" parent="1">
          <mxGeometry x="-280" y="-15" width="1480" height="525" as="geometry" />
        </mxCell>
        <mxCell id="_cBp6xbC-jW82KetdLhI-3" value="" style="endArrow=classic;html=1;exitX=0.5;exitY=0.5;exitDx=0;exitDy=0;exitPerimeter=0;entryX=0.001;entryY=0.48;entryDx=0;entryDy=0;entryPerimeter=0;" edge="1" parent="1" source="VddGbrpunHcnu2wbQyqM-1" target="_cBp6xbC-jW82KetdLhI-2">
          <mxGeometry width="50" height="50" relative="1" as="geometry">
            <mxPoint x="-30" y="290" as="sourcePoint" />
            <mxPoint x="20" y="240" as="targetPoint" />
          </mxGeometry>
        </mxCell>
        <mxCell id="em48EfVCi1kxYno4Nl9o-1" value="&lt;font style=&quot;font-size: 14px;&quot;&gt;1.1 View Product List&lt;br style=&quot;padding: 0px; margin: 0px;&quot;&gt;1.2 Search Products&lt;br style=&quot;padding: 0px; margin: 0px;&quot;&gt;1.3 Filter Products&lt;br style=&quot;padding: 0px; margin: 0px;&quot;&gt;1.4 View Product Details&lt;br style=&quot;padding: 0px; margin: 0px;&quot;&gt;1.5 View Shopping Cart&lt;br style=&quot;padding: 0px; margin: 0px;&quot;&gt;1.6 Proceed to Checkout&lt;/font&gt;" style="edgeLabel;html=1;align=center;verticalAlign=middle;resizable=0;points=[];" vertex="1" connectable="0" parent="_cBp6xbC-jW82KetdLhI-3">
          <mxGeometry x="-0.0322" y="-2" relative="1" as="geometry">
            <mxPoint as="offset" />
          </mxGeometry>
        </mxCell>
        <mxCell id="EUSTcZi7vPd2oFpT7pMu-2" value="Products Database" style="shape=cylinder;whiteSpace=wrap;html=1;boundedLbl=1;backgroundOutline=1;fillColor=#fff2cc;strokeColor=#d6b656;" vertex="1" parent="1">
          <mxGeometry x="60" y="185" width="80" height="85" as="geometry" />
        </mxCell>
        <mxCell id="EUSTcZi7vPd2oFpT7pMu-3" value="1.1 Products List" style="rounded=1;whiteSpace=wrap;html=1;fillColor=#f8cecc;strokeColor=#b85450;" vertex="1" parent="1">
          <mxGeometry x="-180" y="100" width="120" height="60" as="geometry" />
        </mxCell>
        <mxCell id="tA8Pp2BD1TnlvvVBOzV0-1" value="1.2 Search Products" style="rounded=1;whiteSpace=wrap;html=1;fillColor=#f8cecc;strokeColor=#b85450;" vertex="1" parent="1">
          <mxGeometry x="30" y="20" width="120" height="60" as="geometry" />
        </mxCell>
        <mxCell id="Dsm7sccrUeV-9Cd2KV_N-1" value="1.3 Filter Products" style="rounded=1;whiteSpace=wrap;html=1;fillColor=#f8cecc;strokeColor=#b85450;" vertex="1" parent="1">
          <mxGeometry x="240" y="100" width="120" height="60" as="geometry" />
        </mxCell>
        <mxCell id="_8pUZLp3jpVU2dbBv2oK-1" value="" style="endArrow=classic;html=1;entryX=0;entryY=0.412;entryDx=0;entryDy=0;entryPerimeter=0;exitX=0.593;exitY=0.967;exitDx=0;exitDy=0;exitPerimeter=0;" edge="1" parent="1" source="EUSTcZi7vPd2oFpT7pMu-3" target="EUSTcZi7vPd2oFpT7pMu-2">
          <mxGeometry width="50" height="50" relative="1" as="geometry">
            <mxPoint x="-150" y="200" as="sourcePoint" />
            <mxPoint x="-100" y="150" as="targetPoint" />
          </mxGeometry>
        </mxCell>
        <mxCell id="S9E39ByMQN5074bF42DN-1" value="&lt;font style=&quot;font-size: 14px;&quot;&gt;Request Product List&lt;/font&gt;" style="edgeLabel;html=1;align=center;verticalAlign=middle;resizable=0;points=[];" vertex="1" connectable="0" parent="_8pUZLp3jpVU2dbBv2oK-1">
          <mxGeometry x="-0.0261" y="1" relative="1" as="geometry">
            <mxPoint x="-1" as="offset" />
          </mxGeometry>
        </mxCell>
        <mxCell id="S9E39ByMQN5074bF42DN-2" value="" style="endArrow=classic;html=1;entryX=0.5;entryY=0;entryDx=0;entryDy=0;exitX=0.5;exitY=1;exitDx=0;exitDy=0;" edge="1" parent="1" source="tA8Pp2BD1TnlvvVBOzV0-1" target="EUSTcZi7vPd2oFpT7pMu-2">
          <mxGeometry width="50" height="50" relative="1" as="geometry">
            <mxPoint x="-150" y="200" as="sourcePoint" />
            <mxPoint x="-100" y="150" as="targetPoint" />
          </mxGeometry>
        </mxCell>
        <mxCell id="SKrbUmXhv6lqSKb0fhGu-1" value="&lt;font style=&quot;font-size: 14px;&quot;&gt;Request Search Results&lt;/font&gt;" style="edgeLabel;html=1;align=center;verticalAlign=middle;resizable=0;points=[];" vertex="1" connectable="0" parent="S9E39ByMQN5074bF42DN-2">
          <mxGeometry x="-0.0781" relative="1" as="geometry">
            <mxPoint as="offset" />
          </mxGeometry>
        </mxCell>
        <mxCell id="S9E39ByMQN5074bF42DN-3" value="" style="endArrow=classic;html=1;entryX=1;entryY=0.3;entryDx=0;entryDy=0;" edge="1" parent="1" source="Dsm7sccrUeV-9Cd2KV_N-1" target="EUSTcZi7vPd2oFpT7pMu-2">
          <mxGeometry width="50" height="50" relative="1" as="geometry">
            <mxPoint x="-150" y="200" as="sourcePoint" />
            <mxPoint x="-100" y="150" as="targetPoint" />
          </mxGeometry>
        </mxCell>
        <mxCell id="SKrbUmXhv6lqSKb0fhGu-2" value="&lt;font style=&quot;font-size: 14px;&quot;&gt;Request Filtered Results&lt;/font&gt;" style="edgeLabel;html=1;align=center;verticalAlign=middle;resizable=0;points=[];" vertex="1" connectable="0" parent="S9E39ByMQN5074bF42DN-3">
          <mxGeometry x="-0.0867" y="-2" relative="1" as="geometry">
            <mxPoint as="offset" />
          </mxGeometry>
        </mxCell>
        <mxCell id="S9E39ByMQN5074bF42DN-5" value="" style="endArrow=classic;html=1;entryX=0.5;entryY=0;entryDx=0;entryDy=0;exitX=0.5;exitY=1;exitDx=0;exitDy=0;" edge="1" parent="1" source="EUSTcZi7vPd2oFpT7pMu-2" target="0S4UeCEBP0JPQIxnU_BS-1">
          <mxGeometry width="50" height="50" relative="1" as="geometry">
            <mxPoint x="-150" y="200" as="sourcePoint" />
            <mxPoint x="120" y="360" as="targetPoint" />
            <Array as="points">
              <mxPoint x="80" y="320" />
            </Array>
          </mxGeometry>
        </mxCell>
        <mxCell id="LjdKxw4hMZBmU9hOs5N3-1" value="&lt;font style=&quot;font-size: 14px;&quot;&gt;Sends Product Details&lt;/font&gt;" style="edgeLabel;html=1;align=center;verticalAlign=middle;resizable=0;points=[];" vertex="1" connectable="0" parent="S9E39ByMQN5074bF42DN-5">
          <mxGeometry x="0.0362" y="-1" relative="1" as="geometry">
            <mxPoint x="-1" y="30" as="offset" />
          </mxGeometry>
        </mxCell>
        <mxCell id="S9E39ByMQN5074bF42DN-6" value="" style="endArrow=classic;html=1;entryX=0.249;entryY=0.026;entryDx=0;entryDy=0;entryPerimeter=0;" edge="1" parent="1" source="EUSTcZi7vPd2oFpT7pMu-2" target="dm7W2ck3mEAVjPy2w1Q5-2">
          <mxGeometry width="50" height="50" relative="1" as="geometry">
            <mxPoint x="-150" y="200" as="sourcePoint" />
            <mxPoint x="-100" y="150" as="targetPoint" />
            <Array as="points">
              <mxPoint x="-140" y="280" />
            </Array>
          </mxGeometry>
        </mxCell>
        <mxCell id="w5Qbzv9mHJifhdgtlwki-1" value="&lt;font style=&quot;font-size: 14px;&quot;&gt;Sends product list&lt;br style=&quot;padding: 0px; margin: 0px;&quot;&gt;Sends search results&lt;br style=&quot;padding: 0px; margin: 0px;&quot;&gt;Sends filtered results&lt;/font&gt;" style="edgeLabel;html=1;align=center;verticalAlign=middle;resizable=0;points=[];" vertex="1" connectable="0" parent="S9E39ByMQN5074bF42DN-6">
          <mxGeometry x="0.3355" y="-2" relative="1" as="geometry">
            <mxPoint as="offset" />
          </mxGeometry>
        </mxCell>
        <mxCell id="0S4UeCEBP0JPQIxnU_BS-1" value="1.4 View&amp;nbsp;&lt;div&gt;Product details&lt;/div&gt;" style="rounded=1;whiteSpace=wrap;html=1;fillColor=#f8cecc;strokeColor=#b85450;" vertex="1" parent="1">
          <mxGeometry x="70" y="400" width="120" height="60" as="geometry" />
        </mxCell>
        <mxCell id="0S4UeCEBP0JPQIxnU_BS-3" value="" style="endArrow=classic;html=1;exitX=0.75;exitY=0;exitDx=0;exitDy=0;entryX=0.85;entryY=0.95;entryDx=0;entryDy=0;entryPerimeter=0;" edge="1" parent="1" source="0S4UeCEBP0JPQIxnU_BS-1" target="EUSTcZi7vPd2oFpT7pMu-2">
          <mxGeometry width="50" height="50" relative="1" as="geometry">
            <mxPoint x="-150" y="200" as="sourcePoint" />
            <mxPoint x="-100" y="150" as="targetPoint" />
            <Array as="points">
              <mxPoint x="220" y="300" />
            </Array>
          </mxGeometry>
        </mxCell>
        <mxCell id="0S4UeCEBP0JPQIxnU_BS-4" value="Text" style="edgeLabel;html=1;align=center;verticalAlign=middle;resizable=0;points=[];" vertex="1" connectable="0" parent="0S4UeCEBP0JPQIxnU_BS-3">
          <mxGeometry x="0.5121" y="1" relative="1" as="geometry">
            <mxPoint x="-1" as="offset" />
          </mxGeometry>
        </mxCell>
        <mxCell id="tfXg6aWbsO7UpxQC4w7X-1" value="&lt;font style=&quot;font-size: 14px;&quot;&gt;Request Product Details&lt;/font&gt;" style="edgeLabel;html=1;align=center;verticalAlign=middle;resizable=0;points=[];" vertex="1" connectable="0" parent="0S4UeCEBP0JPQIxnU_BS-3">
          <mxGeometry x="0.4936" y="4" relative="1" as="geometry">
            <mxPoint as="offset" />
          </mxGeometry>
        </mxCell>
        <mxCell id="w5Qbzv9mHJifhdgtlwki-2" value="" style="endArrow=classic;html=1;entryX=0;entryY=0.5;entryDx=0;entryDy=0;exitX=1;exitY=1;exitDx=0;exitDy=0;" edge="1" parent="1" source="dm7W2ck3mEAVjPy2w1Q5-2" target="0S4UeCEBP0JPQIxnU_BS-1">
          <mxGeometry width="50" height="50" relative="1" as="geometry">
            <mxPoint x="-150" y="310" as="sourcePoint" />
            <mxPoint x="-100" y="260" as="targetPoint" />
            <Array as="points">
              <mxPoint x="-30" y="450" />
            </Array>
          </mxGeometry>
        </mxCell>
        <mxCell id="Y7qFLCjZjrZPh3w4qq9h-1" value="Orders&lt;div&gt;Database&lt;/div&gt;" style="shape=cylinder;whiteSpace=wrap;html=1;boundedLbl=1;backgroundOutline=1;fillColor=#fff2cc;strokeColor=#d6b656;" vertex="1" parent="1">
          <mxGeometry x="700" y="360" width="80" height="85" as="geometry" />
        </mxCell>
        <mxCell id="AqXMvxY_SIH96qYGNBzj-1" value="1.6 Proceed to checkout" style="rounded=1;whiteSpace=wrap;html=1;fillColor=#f8cecc;strokeColor=#b85450;" vertex="1" parent="1">
          <mxGeometry x="780" y="30" width="120" height="60" as="geometry" />
        </mxCell>
        <mxCell id="AqXMvxY_SIH96qYGNBzj-2" value="1.5 View Shopping cart" style="rounded=1;whiteSpace=wrap;html=1;fillColor=#f8cecc;strokeColor=#b85450;" vertex="1" parent="1">
          <mxGeometry x="471" y="20" width="120" height="60" as="geometry" />
        </mxCell>
        <mxCell id="IbyNucsPp8ejTeufLEHT-1" value="" style="endArrow=none;dashed=1;html=1;entryX=0;entryY=0;entryDx=0;entryDy=0;exitX=1;exitY=0.7;exitDx=0;exitDy=0;" edge="1" parent="1" source="EUSTcZi7vPd2oFpT7pMu-2" target="dm7W2ck3mEAVjPy2w1Q5-1">
          <mxGeometry width="50" height="50" relative="1" as="geometry">
            <mxPoint x="230" y="310" as="sourcePoint" />
            <mxPoint x="280" y="260" as="targetPoint" />
          </mxGeometry>
        </mxCell>
        <mxCell id="IbyNucsPp8ejTeufLEHT-2" value="&lt;span style=&quot;color: rgba(0, 0, 0, 0); font-family: monospace; font-size: 0px; text-align: start;&quot;&gt;%3CmxGraphModel%3E%3Croot%3E%3CmxCell%20id%3D%220%22%2F%3E%3CmxCell%20id%3D%221%22%20parent%3D%220%22%2F%3E%3CmxCell%20id%3D%222%22%20value%3D%22%26lt%3Bfont%20style%3D%26quot%3Bfont-size%3A%2014px%3B%26quot%3B%26gt%3BRequest%20Product%20Details%26lt%3B%2Ffont%26gt%3B%22%20style%3D%22edgeLabel%3Bhtml%3D1%3Balign%3Dcenter%3BverticalAlign%3Dmiddle%3Bresizable%3D0%3Bpoints%3D%5B%5D%3B%22%20vertex%3D%221%22%20connectable%3D%220%22%20parent%3D%221%22%3E%3CmxGeometry%20x%3D%22177.9493750337274%22%20y%3D%22288.6134810878848%22%20as%3D%22geometry%22%2F%3E%3C%2FmxCell%3E%3C%2Froot%3E%3C%2FmxGraphModel%3E&lt;/span&gt;" style="edgeLabel;html=1;align=center;verticalAlign=middle;resizable=0;points=[];" vertex="1" connectable="0" parent="IbyNucsPp8ejTeufLEHT-1">
          <mxGeometry x="-0.0094" relative="1" as="geometry">
            <mxPoint as="offset" />
          </mxGeometry>
        </mxCell>
        <mxCell id="IbyNucsPp8ejTeufLEHT-3" value="&lt;span style=&quot;font-size: 14px;&quot;&gt;Request Product Details&lt;/span&gt;" style="edgeLabel;html=1;align=center;verticalAlign=middle;resizable=0;points=[];" vertex="1" connectable="0" parent="IbyNucsPp8ejTeufLEHT-1">
          <mxGeometry x="0.0043" relative="1" as="geometry">
            <mxPoint x="54" y="-6" as="offset" />
          </mxGeometry>
        </mxCell>
        <mxCell id="DceD_M7Q3WQKRN6PpvLX-1" value="" style="endArrow=classic;html=1;exitX=0.5;exitY=1;exitDx=0;exitDy=0;" edge="1" parent="1" source="AqXMvxY_SIH96qYGNBzj-2" target="dm7W2ck3mEAVjPy2w1Q5-1">
          <mxGeometry width="50" height="50" relative="1" as="geometry">
            <mxPoint x="230" y="310" as="sourcePoint" />
            <mxPoint x="540" y="190" as="targetPoint" />
            <Array as="points">
              <mxPoint x="450" y="120" />
            </Array>
          </mxGeometry>
        </mxCell>
        <mxCell id="G5KNGVd30WnnfEuJGpCP-3" value="&lt;font style=&quot;font-size: 14px;&quot;&gt;Requests cart contents&lt;/font&gt;" style="edgeLabel;html=1;align=center;verticalAlign=middle;resizable=0;points=[];" vertex="1" connectable="0" parent="DceD_M7Q3WQKRN6PpvLX-1">
          <mxGeometry x="-0.1067" y="1" relative="1" as="geometry">
            <mxPoint x="21" y="51" as="offset" />
          </mxGeometry>
        </mxCell>
        <mxCell id="sMlgwasXgxX00twTlTOj-1" value="Payment Gateway Database" style="shape=cylinder;whiteSpace=wrap;html=1;boundedLbl=1;backgroundOutline=1;fillColor=#fff2cc;strokeColor=#d6b656;" vertex="1" parent="1">
          <mxGeometry x="1060" y="360" width="80" height="85" as="geometry" />
        </mxCell>
        <mxCell id="G5KNGVd30WnnfEuJGpCP-1" value="" style="endArrow=classic;html=1;entryX=0.422;entryY=0.997;entryDx=0;entryDy=0;exitX=0;exitY=0.5;exitDx=0;exitDy=0;entryPerimeter=0;" edge="1" parent="1" source="Y7qFLCjZjrZPh3w4qq9h-1" target="dm7W2ck3mEAVjPy2w1Q5-1">
          <mxGeometry width="50" height="50" relative="1" as="geometry">
            <mxPoint x="290" y="310" as="sourcePoint" />
            <mxPoint x="340" y="260" as="targetPoint" />
            <Array as="points">
              <mxPoint x="510" y="330" />
            </Array>
          </mxGeometry>
        </mxCell>
        <mxCell id="G5KNGVd30WnnfEuJGpCP-2" value="&lt;font style=&quot;font-size: 14px;&quot;&gt;Retrieves Order Details&lt;/font&gt;" style="edgeLabel;html=1;align=center;verticalAlign=middle;resizable=0;points=[];" vertex="1" connectable="0" parent="G5KNGVd30WnnfEuJGpCP-1">
          <mxGeometry x="-0.0239" y="-3" relative="1" as="geometry">
            <mxPoint as="offset" />
          </mxGeometry>
        </mxCell>
        <mxCell id="G5KNGVd30WnnfEuJGpCP-4" value="" style="endArrow=classic;html=1;entryX=0.75;entryY=1;entryDx=0;entryDy=0;exitX=0.793;exitY=0.126;exitDx=0;exitDy=0;exitPerimeter=0;" edge="1" parent="1" source="dm7W2ck3mEAVjPy2w1Q5-1" target="AqXMvxY_SIH96qYGNBzj-2">
          <mxGeometry width="50" height="50" relative="1" as="geometry">
            <mxPoint x="290" y="310" as="sourcePoint" />
            <mxPoint x="340" y="260" as="targetPoint" />
            <Array as="points">
              <mxPoint x="620" y="140" />
            </Array>
          </mxGeometry>
        </mxCell>
        <mxCell id="G5KNGVd30WnnfEuJGpCP-5" value="&lt;font style=&quot;font-size: 14px;&quot;&gt;Sends&amp;nbsp;&lt;/font&gt;&lt;span style=&quot;font-size: 14px;&quot;&gt;cart contents&lt;/span&gt;" style="edgeLabel;html=1;align=center;verticalAlign=middle;resizable=0;points=[];" vertex="1" connectable="0" parent="G5KNGVd30WnnfEuJGpCP-4">
          <mxGeometry x="0.2812" y="2" relative="1" as="geometry">
            <mxPoint y="-24" as="offset" />
          </mxGeometry>
        </mxCell>
        <mxCell id="G5KNGVd30WnnfEuJGpCP-8" value="" style="endArrow=classic;html=1;entryX=0.5;entryY=0;entryDx=0;entryDy=0;exitX=0;exitY=1;exitDx=0;exitDy=0;" edge="1" parent="1" source="dm7W2ck3mEAVjPy2w1Q5-3" target="Y7qFLCjZjrZPh3w4qq9h-1">
          <mxGeometry width="50" height="50" relative="1" as="geometry">
            <mxPoint x="670" y="260" as="sourcePoint" />
            <mxPoint x="720" y="210" as="targetPoint" />
            <Array as="points">
              <mxPoint x="700" y="290" />
            </Array>
          </mxGeometry>
        </mxCell>
        <mxCell id="G5KNGVd30WnnfEuJGpCP-9" value="&lt;font style=&quot;font-size: 14px;&quot;&gt;Sends Payment information&lt;/font&gt;" style="edgeLabel;html=1;align=center;verticalAlign=middle;resizable=0;points=[];" vertex="1" connectable="0" parent="G5KNGVd30WnnfEuJGpCP-8">
          <mxGeometry x="-0.0064" y="2" relative="1" as="geometry">
            <mxPoint x="-5" y="-16" as="offset" />
          </mxGeometry>
        </mxCell>
        <mxCell id="G5KNGVd30WnnfEuJGpCP-10" value="" style="endArrow=classic;html=1;entryX=0.5;entryY=0;entryDx=0;entryDy=0;exitX=1;exitY=1;exitDx=0;exitDy=0;" edge="1" parent="1" source="dm7W2ck3mEAVjPy2w1Q5-3" target="sMlgwasXgxX00twTlTOj-1">
          <mxGeometry width="50" height="50" relative="1" as="geometry">
            <mxPoint x="800" y="230" as="sourcePoint" />
            <mxPoint x="850" y="180" as="targetPoint" />
            <Array as="points" />
          </mxGeometry>
        </mxCell>
        <mxCell id="G5KNGVd30WnnfEuJGpCP-11" value="&lt;font style=&quot;font-size: 14px;&quot;&gt;Sends payment confirmation&lt;br style=&quot;padding: 0px; margin: 0px;&quot;&gt;Sends payment failure&lt;/font&gt;" style="edgeLabel;html=1;align=center;verticalAlign=middle;resizable=0;points=[];" vertex="1" connectable="0" parent="G5KNGVd30WnnfEuJGpCP-10">
          <mxGeometry x="0.4655" y="1" relative="1" as="geometry">
            <mxPoint as="offset" />
          </mxGeometry>
        </mxCell>
        <mxCell id="G5KNGVd30WnnfEuJGpCP-12" value="" style="endArrow=none;dashed=1;html=1;entryX=0.5;entryY=1;entryDx=0;entryDy=0;" edge="1" parent="1" source="Y7qFLCjZjrZPh3w4qq9h-1" target="dm7W2ck3mEAVjPy2w1Q5-3">
          <mxGeometry width="50" height="50" relative="1" as="geometry">
            <mxPoint x="530" y="310" as="sourcePoint" />
            <mxPoint x="580" y="260" as="targetPoint" />
          </mxGeometry>
        </mxCell>
        <mxCell id="G5KNGVd30WnnfEuJGpCP-13" value="&lt;font style=&quot;font-size: 14px;&quot;&gt;Requests Order Details&lt;/font&gt;" style="edgeLabel;html=1;align=center;verticalAlign=middle;resizable=0;points=[];" vertex="1" connectable="0" parent="G5KNGVd30WnnfEuJGpCP-12">
          <mxGeometry x="0.2253" relative="1" as="geometry">
            <mxPoint y="25" as="offset" />
          </mxGeometry>
        </mxCell>
        <mxCell id="33oCcnOjIOfPgqjxPQxe-6" value="" style="endArrow=classic;html=1;entryX=0.5;entryY=1;entryDx=0;entryDy=0;exitX=0.5;exitY=0;exitDx=0;exitDy=0;" edge="1" parent="1" source="dm7W2ck3mEAVjPy2w1Q5-3" target="AqXMvxY_SIH96qYGNBzj-1">
          <mxGeometry width="50" height="50" relative="1" as="geometry">
            <mxPoint x="610" y="300" as="sourcePoint" />
            <mxPoint x="660" y="250" as="targetPoint" />
          </mxGeometry>
        </mxCell>
        <mxCell id="ZnnefVs-6q5U2etNaJwM-1" value="&lt;font style=&quot;font-size: 14px;&quot;&gt;Sends payment information&lt;/font&gt;" style="edgeLabel;html=1;align=center;verticalAlign=middle;resizable=0;points=[];" vertex="1" connectable="0" parent="33oCcnOjIOfPgqjxPQxe-6">
          <mxGeometry x="-0.065" relative="1" as="geometry">
            <mxPoint as="offset" />
          </mxGeometry>
        </mxCell>
        <mxCell id="ZHfxys5FTA5ih_VJcYP4-1" value="&lt;font style=&quot;font-size: 36px;&quot;&gt;DFD Level 1 Diagram&amp;nbsp;&lt;/font&gt;" style="text;html=1;align=center;verticalAlign=middle;whiteSpace=wrap;rounded=0;" vertex="1" parent="1">
          <mxGeometry x="-560" y="-90" width="410" height="30" as="geometry" />
        </mxCell>
        <mxCell id="dm7W2ck3mEAVjPy2w1Q5-1" value="Shopping Cart Process" style="ellipse;whiteSpace=wrap;html=1;aspect=fixed;fillColor=#e1d5e7;strokeColor=#9673a6;" vertex="1" parent="1">
          <mxGeometry x="471" y="185" width="100" height="100" as="geometry" />
        </mxCell>
        <mxCell id="dm7W2ck3mEAVjPy2w1Q5-2" value="Product Display Process" style="ellipse;whiteSpace=wrap;html=1;aspect=fixed;fillColor=#e1d5e7;strokeColor=#9673a6;" vertex="1" parent="1">
          <mxGeometry x="-130" y="330" width="80" height="80" as="geometry" />
        </mxCell>
        <mxCell id="dm7W2ck3mEAVjPy2w1Q5-3" value="Payment Gateway Process" style="ellipse;whiteSpace=wrap;html=1;aspect=fixed;fillColor=#e1d5e7;strokeColor=#9673a6;" vertex="1" parent="1">
          <mxGeometry x="800" y="170" width="80" height="80" as="geometry" />
        </mxCell>
        <mxCell id="F246SoBwW_1bUUclhp2J-1" value="&lt;div style=&quot;text-align: center;&quot;&gt;&lt;span style=&quot;background-color: initial;&quot;&gt;Assignment&lt;/span&gt;&lt;/div&gt;&lt;div&gt;Add User Database&amp;nbsp;&lt;/div&gt;&lt;div&gt;&lt;br&gt;&lt;/div&gt;&lt;div&gt;Request from database&amp;nbsp;&lt;/div&gt;&lt;div&gt;&lt;span style=&quot;white-space: pre;&quot;&gt;&#x9;&lt;/span&gt;User details&lt;/div&gt;&lt;div&gt;&lt;span style=&quot;white-space: pre;&quot;&gt;&#x9;&lt;/span&gt;User Authentication details&lt;/div&gt;&lt;div&gt;Send to System&lt;/div&gt;&lt;div&gt;&lt;span style=&quot;white-space: pre;&quot;&gt;&#x9;&lt;/span&gt;User Details&lt;/div&gt;&lt;div&gt;&lt;span style=&quot;white-space: pre;&quot;&gt;&#x9;&lt;/span&gt;Valid user confirmation&lt;/div&gt;&lt;div&gt;&lt;br&gt;&lt;/div&gt;&lt;div&gt;&lt;br&gt;&lt;/div&gt;" style="text;html=1;align=left;verticalAlign=middle;whiteSpace=wrap;rounded=0;" vertex="1" parent="1">
          <mxGeometry x="1330" y="440" width="186" height="143.5" as="geometry" />
        </mxCell>
      </root>
    </mxGraphModel>
  </diagram>
  <diagram id="PlVA-d0XHqdK7_zg0-27" name="ER Diagram">
    <mxGraphModel dx="1671" dy="614" grid="1" gridSize="10" guides="1" tooltips="1" connect="1" arrows="1" fold="1" page="0" pageScale="1" pageWidth="413" pageHeight="291" math="0" shadow="0">
      <root>
        <mxCell id="0" />
        <mxCell id="1" parent="0" />
        <mxCell id="cLK1sYaVFix4xj5A54oM-2" value="USER" style="shape=table;startSize=25;container=1;collapsible=0;childLayout=tableLayout;fixedRows=1;rowLines=1;fontStyle=1;align=center;resizeLast=1;fillColor=#ffe6cc;strokeColor=#d79b00;" vertex="1" parent="1">
          <mxGeometry x="230" y="150" width="100" height="113" as="geometry" />
        </mxCell>
        <mxCell id="cLK1sYaVFix4xj5A54oM-3" style="shape=tableRow;horizontal=0;startSize=0;swimlaneHead=0;swimlaneBody=0;fillColor=none;collapsible=0;dropTarget=0;points=[[0,0.5],[1,0.5]];portConstraint=eastwest;top=0;left=0;right=0;bottom=0;" vertex="1" parent="cLK1sYaVFix4xj5A54oM-2">
          <mxGeometry y="25" width="100" height="22" as="geometry" />
        </mxCell>
        <mxCell id="cLK1sYaVFix4xj5A54oM-4" value="int" style="shape=partialRectangle;connectable=0;fillColor=none;top=0;left=0;bottom=0;right=0;align=left;spacingLeft=2;overflow=hidden;fontSize=11;" vertex="1" parent="cLK1sYaVFix4xj5A54oM-3">
          <mxGeometry width="36" height="22" as="geometry">
            <mxRectangle width="36" height="22" as="alternateBounds" />
          </mxGeometry>
        </mxCell>
        <mxCell id="cLK1sYaVFix4xj5A54oM-5" value="UserID" style="shape=partialRectangle;connectable=0;fillColor=none;top=0;left=0;bottom=0;right=0;align=left;spacingLeft=2;overflow=hidden;fontSize=11;" vertex="1" parent="cLK1sYaVFix4xj5A54oM-3">
          <mxGeometry x="36" width="64" height="22" as="geometry">
            <mxRectangle width="64" height="22" as="alternateBounds" />
          </mxGeometry>
        </mxCell>
        <mxCell id="cLK1sYaVFix4xj5A54oM-6" style="shape=tableRow;horizontal=0;startSize=0;swimlaneHead=0;swimlaneBody=0;fillColor=none;collapsible=0;dropTarget=0;points=[[0,0.5],[1,0.5]];portConstraint=eastwest;top=0;left=0;right=0;bottom=0;" vertex="1" parent="cLK1sYaVFix4xj5A54oM-2">
          <mxGeometry y="47" width="100" height="22" as="geometry" />
        </mxCell>
        <mxCell id="cLK1sYaVFix4xj5A54oM-7" value="string" style="shape=partialRectangle;connectable=0;fillColor=none;top=0;left=0;bottom=0;right=0;align=left;spacingLeft=2;overflow=hidden;fontSize=11;" vertex="1" parent="cLK1sYaVFix4xj5A54oM-6">
          <mxGeometry width="36" height="22" as="geometry">
            <mxRectangle width="36" height="22" as="alternateBounds" />
          </mxGeometry>
        </mxCell>
        <mxCell id="cLK1sYaVFix4xj5A54oM-8" value="Name" style="shape=partialRectangle;connectable=0;fillColor=none;top=0;left=0;bottom=0;right=0;align=left;spacingLeft=2;overflow=hidden;fontSize=11;" vertex="1" parent="cLK1sYaVFix4xj5A54oM-6">
          <mxGeometry x="36" width="64" height="22" as="geometry">
            <mxRectangle width="64" height="22" as="alternateBounds" />
          </mxGeometry>
        </mxCell>
        <mxCell id="cLK1sYaVFix4xj5A54oM-9" style="shape=tableRow;horizontal=0;startSize=0;swimlaneHead=0;swimlaneBody=0;fillColor=none;collapsible=0;dropTarget=0;points=[[0,0.5],[1,0.5]];portConstraint=eastwest;top=0;left=0;right=0;bottom=0;" vertex="1" parent="cLK1sYaVFix4xj5A54oM-2">
          <mxGeometry y="69" width="100" height="22" as="geometry" />
        </mxCell>
        <mxCell id="cLK1sYaVFix4xj5A54oM-10" value="string" style="shape=partialRectangle;connectable=0;fillColor=none;top=0;left=0;bottom=0;right=0;align=left;spacingLeft=2;overflow=hidden;fontSize=11;" vertex="1" parent="cLK1sYaVFix4xj5A54oM-9">
          <mxGeometry width="36" height="22" as="geometry">
            <mxRectangle width="36" height="22" as="alternateBounds" />
          </mxGeometry>
        </mxCell>
        <mxCell id="cLK1sYaVFix4xj5A54oM-11" value="Email" style="shape=partialRectangle;connectable=0;fillColor=none;top=0;left=0;bottom=0;right=0;align=left;spacingLeft=2;overflow=hidden;fontSize=11;" vertex="1" parent="cLK1sYaVFix4xj5A54oM-9">
          <mxGeometry x="36" width="64" height="22" as="geometry">
            <mxRectangle width="64" height="22" as="alternateBounds" />
          </mxGeometry>
        </mxCell>
        <mxCell id="cLK1sYaVFix4xj5A54oM-12" style="shape=tableRow;horizontal=0;startSize=0;swimlaneHead=0;swimlaneBody=0;fillColor=none;collapsible=0;dropTarget=0;points=[[0,0.5],[1,0.5]];portConstraint=eastwest;top=0;left=0;right=0;bottom=0;" vertex="1" parent="cLK1sYaVFix4xj5A54oM-2">
          <mxGeometry y="91" width="100" height="22" as="geometry" />
        </mxCell>
        <mxCell id="cLK1sYaVFix4xj5A54oM-13" value="string" style="shape=partialRectangle;connectable=0;fillColor=none;top=0;left=0;bottom=0;right=0;align=left;spacingLeft=2;overflow=hidden;fontSize=11;" vertex="1" parent="cLK1sYaVFix4xj5A54oM-12">
          <mxGeometry width="36" height="22" as="geometry">
            <mxRectangle width="36" height="22" as="alternateBounds" />
          </mxGeometry>
        </mxCell>
        <mxCell id="cLK1sYaVFix4xj5A54oM-14" value="Password" style="shape=partialRectangle;connectable=0;fillColor=none;top=0;left=0;bottom=0;right=0;align=left;spacingLeft=2;overflow=hidden;fontSize=11;" vertex="1" parent="cLK1sYaVFix4xj5A54oM-12">
          <mxGeometry x="36" width="64" height="22" as="geometry">
            <mxRectangle width="64" height="22" as="alternateBounds" />
          </mxGeometry>
        </mxCell>
        <mxCell id="cLK1sYaVFix4xj5A54oM-15" value="PRODUCT" style="shape=table;startSize=25;container=1;collapsible=0;childLayout=tableLayout;fixedRows=1;rowLines=1;fontStyle=1;align=center;resizeLast=1;fillColor=#dae8fc;strokeColor=#6c8ebf;" vertex="1" parent="1">
          <mxGeometry x="232" y="362" width="102" height="179" as="geometry" />
        </mxCell>
        <mxCell id="cLK1sYaVFix4xj5A54oM-16" style="shape=tableRow;horizontal=0;startSize=0;swimlaneHead=0;swimlaneBody=0;fillColor=none;collapsible=0;dropTarget=0;points=[[0,0.5],[1,0.5]];portConstraint=eastwest;top=0;left=0;right=0;bottom=0;" vertex="1" parent="cLK1sYaVFix4xj5A54oM-15">
          <mxGeometry y="25" width="102" height="22" as="geometry" />
        </mxCell>
        <mxCell id="cLK1sYaVFix4xj5A54oM-17" value="int" style="shape=partialRectangle;connectable=0;fillColor=none;top=0;left=0;bottom=0;right=0;align=left;spacingLeft=2;overflow=hidden;fontSize=11;" vertex="1" parent="cLK1sYaVFix4xj5A54oM-16">
          <mxGeometry width="36" height="22" as="geometry">
            <mxRectangle width="36" height="22" as="alternateBounds" />
          </mxGeometry>
        </mxCell>
        <mxCell id="cLK1sYaVFix4xj5A54oM-18" value="ProductID" style="shape=partialRectangle;connectable=0;fillColor=none;top=0;left=0;bottom=0;right=0;align=left;spacingLeft=2;overflow=hidden;fontSize=11;" vertex="1" parent="cLK1sYaVFix4xj5A54oM-16">
          <mxGeometry x="36" width="66" height="22" as="geometry">
            <mxRectangle width="66" height="22" as="alternateBounds" />
          </mxGeometry>
        </mxCell>
        <mxCell id="cLK1sYaVFix4xj5A54oM-19" style="shape=tableRow;horizontal=0;startSize=0;swimlaneHead=0;swimlaneBody=0;fillColor=none;collapsible=0;dropTarget=0;points=[[0,0.5],[1,0.5]];portConstraint=eastwest;top=0;left=0;right=0;bottom=0;" vertex="1" parent="cLK1sYaVFix4xj5A54oM-15">
          <mxGeometry y="47" width="102" height="22" as="geometry" />
        </mxCell>
        <mxCell id="cLK1sYaVFix4xj5A54oM-20" value="string" style="shape=partialRectangle;connectable=0;fillColor=none;top=0;left=0;bottom=0;right=0;align=left;spacingLeft=2;overflow=hidden;fontSize=11;" vertex="1" parent="cLK1sYaVFix4xj5A54oM-19">
          <mxGeometry width="36" height="22" as="geometry">
            <mxRectangle width="36" height="22" as="alternateBounds" />
          </mxGeometry>
        </mxCell>
        <mxCell id="cLK1sYaVFix4xj5A54oM-21" value="Name" style="shape=partialRectangle;connectable=0;fillColor=none;top=0;left=0;bottom=0;right=0;align=left;spacingLeft=2;overflow=hidden;fontSize=11;" vertex="1" parent="cLK1sYaVFix4xj5A54oM-19">
          <mxGeometry x="36" width="66" height="22" as="geometry">
            <mxRectangle width="66" height="22" as="alternateBounds" />
          </mxGeometry>
        </mxCell>
        <mxCell id="cLK1sYaVFix4xj5A54oM-22" style="shape=tableRow;horizontal=0;startSize=0;swimlaneHead=0;swimlaneBody=0;fillColor=none;collapsible=0;dropTarget=0;points=[[0,0.5],[1,0.5]];portConstraint=eastwest;top=0;left=0;right=0;bottom=0;" vertex="1" parent="cLK1sYaVFix4xj5A54oM-15">
          <mxGeometry y="69" width="102" height="22" as="geometry" />
        </mxCell>
        <mxCell id="cLK1sYaVFix4xj5A54oM-23" value="string" style="shape=partialRectangle;connectable=0;fillColor=none;top=0;left=0;bottom=0;right=0;align=left;spacingLeft=2;overflow=hidden;fontSize=11;" vertex="1" parent="cLK1sYaVFix4xj5A54oM-22">
          <mxGeometry width="36" height="22" as="geometry">
            <mxRectangle width="36" height="22" as="alternateBounds" />
          </mxGeometry>
        </mxCell>
        <mxCell id="cLK1sYaVFix4xj5A54oM-24" value="Description" style="shape=partialRectangle;connectable=0;fillColor=none;top=0;left=0;bottom=0;right=0;align=left;spacingLeft=2;overflow=hidden;fontSize=11;" vertex="1" parent="cLK1sYaVFix4xj5A54oM-22">
          <mxGeometry x="36" width="66" height="22" as="geometry">
            <mxRectangle width="66" height="22" as="alternateBounds" />
          </mxGeometry>
        </mxCell>
        <mxCell id="cLK1sYaVFix4xj5A54oM-25" style="shape=tableRow;horizontal=0;startSize=0;swimlaneHead=0;swimlaneBody=0;fillColor=none;collapsible=0;dropTarget=0;points=[[0,0.5],[1,0.5]];portConstraint=eastwest;top=0;left=0;right=0;bottom=0;" vertex="1" parent="cLK1sYaVFix4xj5A54oM-15">
          <mxGeometry y="91" width="102" height="22" as="geometry" />
        </mxCell>
        <mxCell id="cLK1sYaVFix4xj5A54oM-26" value="float" style="shape=partialRectangle;connectable=0;fillColor=none;top=0;left=0;bottom=0;right=0;align=left;spacingLeft=2;overflow=hidden;fontSize=11;" vertex="1" parent="cLK1sYaVFix4xj5A54oM-25">
          <mxGeometry width="36" height="22" as="geometry">
            <mxRectangle width="36" height="22" as="alternateBounds" />
          </mxGeometry>
        </mxCell>
        <mxCell id="cLK1sYaVFix4xj5A54oM-27" value="Price" style="shape=partialRectangle;connectable=0;fillColor=none;top=0;left=0;bottom=0;right=0;align=left;spacingLeft=2;overflow=hidden;fontSize=11;" vertex="1" parent="cLK1sYaVFix4xj5A54oM-25">
          <mxGeometry x="36" width="66" height="22" as="geometry">
            <mxRectangle width="66" height="22" as="alternateBounds" />
          </mxGeometry>
        </mxCell>
        <mxCell id="cLK1sYaVFix4xj5A54oM-28" style="shape=tableRow;horizontal=0;startSize=0;swimlaneHead=0;swimlaneBody=0;fillColor=none;collapsible=0;dropTarget=0;points=[[0,0.5],[1,0.5]];portConstraint=eastwest;top=0;left=0;right=0;bottom=0;" vertex="1" parent="cLK1sYaVFix4xj5A54oM-15">
          <mxGeometry y="113" width="102" height="22" as="geometry" />
        </mxCell>
        <mxCell id="cLK1sYaVFix4xj5A54oM-29" value="string" style="shape=partialRectangle;connectable=0;fillColor=none;top=0;left=0;bottom=0;right=0;align=left;spacingLeft=2;overflow=hidden;fontSize=11;" vertex="1" parent="cLK1sYaVFix4xj5A54oM-28">
          <mxGeometry width="36" height="22" as="geometry">
            <mxRectangle width="36" height="22" as="alternateBounds" />
          </mxGeometry>
        </mxCell>
        <mxCell id="cLK1sYaVFix4xj5A54oM-30" value="Category" style="shape=partialRectangle;connectable=0;fillColor=none;top=0;left=0;bottom=0;right=0;align=left;spacingLeft=2;overflow=hidden;fontSize=11;" vertex="1" parent="cLK1sYaVFix4xj5A54oM-28">
          <mxGeometry x="36" width="66" height="22" as="geometry">
            <mxRectangle width="66" height="22" as="alternateBounds" />
          </mxGeometry>
        </mxCell>
        <mxCell id="cLK1sYaVFix4xj5A54oM-31" style="shape=tableRow;horizontal=0;startSize=0;swimlaneHead=0;swimlaneBody=0;fillColor=none;collapsible=0;dropTarget=0;points=[[0,0.5],[1,0.5]];portConstraint=eastwest;top=0;left=0;right=0;bottom=0;" vertex="1" parent="cLK1sYaVFix4xj5A54oM-15">
          <mxGeometry y="135" width="102" height="22" as="geometry" />
        </mxCell>
        <mxCell id="cLK1sYaVFix4xj5A54oM-32" value="string" style="shape=partialRectangle;connectable=0;fillColor=none;top=0;left=0;bottom=0;right=0;align=left;spacingLeft=2;overflow=hidden;fontSize=11;" vertex="1" parent="cLK1sYaVFix4xj5A54oM-31">
          <mxGeometry width="36" height="22" as="geometry">
            <mxRectangle width="36" height="22" as="alternateBounds" />
          </mxGeometry>
        </mxCell>
        <mxCell id="cLK1sYaVFix4xj5A54oM-33" value="Brand" style="shape=partialRectangle;connectable=0;fillColor=none;top=0;left=0;bottom=0;right=0;align=left;spacingLeft=2;overflow=hidden;fontSize=11;" vertex="1" parent="cLK1sYaVFix4xj5A54oM-31">
          <mxGeometry x="36" width="66" height="22" as="geometry">
            <mxRectangle width="66" height="22" as="alternateBounds" />
          </mxGeometry>
        </mxCell>
        <mxCell id="cLK1sYaVFix4xj5A54oM-34" style="shape=tableRow;horizontal=0;startSize=0;swimlaneHead=0;swimlaneBody=0;fillColor=none;collapsible=0;dropTarget=0;points=[[0,0.5],[1,0.5]];portConstraint=eastwest;top=0;left=0;right=0;bottom=0;" vertex="1" parent="cLK1sYaVFix4xj5A54oM-15">
          <mxGeometry y="157" width="102" height="22" as="geometry" />
        </mxCell>
        <mxCell id="cLK1sYaVFix4xj5A54oM-35" value="float" style="shape=partialRectangle;connectable=0;fillColor=none;top=0;left=0;bottom=0;right=0;align=left;spacingLeft=2;overflow=hidden;fontSize=11;" vertex="1" parent="cLK1sYaVFix4xj5A54oM-34">
          <mxGeometry width="36" height="22" as="geometry">
            <mxRectangle width="36" height="22" as="alternateBounds" />
          </mxGeometry>
        </mxCell>
        <mxCell id="cLK1sYaVFix4xj5A54oM-36" value="Rating" style="shape=partialRectangle;connectable=0;fillColor=none;top=0;left=0;bottom=0;right=0;align=left;spacingLeft=2;overflow=hidden;fontSize=11;" vertex="1" parent="cLK1sYaVFix4xj5A54oM-34">
          <mxGeometry x="36" width="66" height="22" as="geometry">
            <mxRectangle width="66" height="22" as="alternateBounds" />
          </mxGeometry>
        </mxCell>
        <mxCell id="cLK1sYaVFix4xj5A54oM-37" value="SHOPPINGCART" style="shape=table;startSize=25;container=1;collapsible=0;childLayout=tableLayout;fixedRows=1;rowLines=1;fontStyle=1;align=center;resizeLast=1;fillColor=#d5e8d4;strokeColor=#82b366;" vertex="1" parent="1">
          <mxGeometry x="20" y="406" width="112" height="91" as="geometry" />
        </mxCell>
        <mxCell id="cLK1sYaVFix4xj5A54oM-38" style="shape=tableRow;horizontal=0;startSize=0;swimlaneHead=0;swimlaneBody=0;fillColor=none;collapsible=0;dropTarget=0;points=[[0,0.5],[1,0.5]];portConstraint=eastwest;top=0;left=0;right=0;bottom=0;" vertex="1" parent="cLK1sYaVFix4xj5A54oM-37">
          <mxGeometry y="25" width="112" height="22" as="geometry" />
        </mxCell>
        <mxCell id="cLK1sYaVFix4xj5A54oM-39" value="int" style="shape=partialRectangle;connectable=0;fillColor=none;top=0;left=0;bottom=0;right=0;align=left;spacingLeft=2;overflow=hidden;fontSize=11;" vertex="1" parent="cLK1sYaVFix4xj5A54oM-38">
          <mxGeometry width="24" height="22" as="geometry">
            <mxRectangle width="24" height="22" as="alternateBounds" />
          </mxGeometry>
        </mxCell>
        <mxCell id="cLK1sYaVFix4xj5A54oM-40" value="CartID" style="shape=partialRectangle;connectable=0;fillColor=none;top=0;left=0;bottom=0;right=0;align=left;spacingLeft=2;overflow=hidden;fontSize=11;" vertex="1" parent="cLK1sYaVFix4xj5A54oM-38">
          <mxGeometry x="24" width="88" height="22" as="geometry">
            <mxRectangle width="88" height="22" as="alternateBounds" />
          </mxGeometry>
        </mxCell>
        <mxCell id="cLK1sYaVFix4xj5A54oM-41" style="shape=tableRow;horizontal=0;startSize=0;swimlaneHead=0;swimlaneBody=0;fillColor=none;collapsible=0;dropTarget=0;points=[[0,0.5],[1,0.5]];portConstraint=eastwest;top=0;left=0;right=0;bottom=0;" vertex="1" parent="cLK1sYaVFix4xj5A54oM-37">
          <mxGeometry y="47" width="112" height="22" as="geometry" />
        </mxCell>
        <mxCell id="cLK1sYaVFix4xj5A54oM-42" value="int" style="shape=partialRectangle;connectable=0;fillColor=none;top=0;left=0;bottom=0;right=0;align=left;spacingLeft=2;overflow=hidden;fontSize=11;" vertex="1" parent="cLK1sYaVFix4xj5A54oM-41">
          <mxGeometry width="24" height="22" as="geometry">
            <mxRectangle width="24" height="22" as="alternateBounds" />
          </mxGeometry>
        </mxCell>
        <mxCell id="cLK1sYaVFix4xj5A54oM-43" value="UserID" style="shape=partialRectangle;connectable=0;fillColor=#ffe6cc;top=0;left=0;bottom=0;right=0;align=left;spacingLeft=2;overflow=hidden;fontSize=11;strokeColor=#d79b00;" vertex="1" parent="cLK1sYaVFix4xj5A54oM-41">
          <mxGeometry x="24" width="88" height="22" as="geometry">
            <mxRectangle width="88" height="22" as="alternateBounds" />
          </mxGeometry>
        </mxCell>
        <mxCell id="cLK1sYaVFix4xj5A54oM-44" style="shape=tableRow;horizontal=0;startSize=0;swimlaneHead=0;swimlaneBody=0;fillColor=none;collapsible=0;dropTarget=0;points=[[0,0.5],[1,0.5]];portConstraint=eastwest;top=0;left=0;right=0;bottom=0;" vertex="1" parent="cLK1sYaVFix4xj5A54oM-37">
          <mxGeometry y="69" width="112" height="22" as="geometry" />
        </mxCell>
        <mxCell id="cLK1sYaVFix4xj5A54oM-45" value="date" style="shape=partialRectangle;connectable=0;fillColor=none;top=0;left=0;bottom=0;right=0;align=left;spacingLeft=2;overflow=hidden;fontSize=11;" vertex="1" parent="cLK1sYaVFix4xj5A54oM-44">
          <mxGeometry width="24" height="22" as="geometry">
            <mxRectangle width="24" height="22" as="alternateBounds" />
          </mxGeometry>
        </mxCell>
        <mxCell id="cLK1sYaVFix4xj5A54oM-46" value="CreatedDate" style="shape=partialRectangle;connectable=0;fillColor=none;top=0;left=0;bottom=0;right=0;align=left;spacingLeft=2;overflow=hidden;fontSize=11;" vertex="1" parent="cLK1sYaVFix4xj5A54oM-44">
          <mxGeometry x="24" width="88" height="22" as="geometry">
            <mxRectangle width="88" height="22" as="alternateBounds" />
          </mxGeometry>
        </mxCell>
        <mxCell id="cLK1sYaVFix4xj5A54oM-47" value="CARTITEM" style="shape=table;startSize=25;container=1;collapsible=0;childLayout=tableLayout;fixedRows=1;rowLines=1;fontStyle=1;align=center;resizeLast=1;fillColor=#f8cecc;strokeColor=#b85450;" vertex="1" parent="1">
          <mxGeometry x="79" y="610" width="100" height="113" as="geometry" />
        </mxCell>
        <mxCell id="cLK1sYaVFix4xj5A54oM-48" style="shape=tableRow;horizontal=0;startSize=0;swimlaneHead=0;swimlaneBody=0;fillColor=none;collapsible=0;dropTarget=0;points=[[0,0.5],[1,0.5]];portConstraint=eastwest;top=0;left=0;right=0;bottom=0;" vertex="1" parent="cLK1sYaVFix4xj5A54oM-47">
          <mxGeometry y="25" width="100" height="22" as="geometry" />
        </mxCell>
        <mxCell id="cLK1sYaVFix4xj5A54oM-49" value="int" style="shape=partialRectangle;connectable=0;fillColor=none;top=0;left=0;bottom=0;right=0;align=left;spacingLeft=2;overflow=hidden;fontSize=11;" vertex="1" parent="cLK1sYaVFix4xj5A54oM-48">
          <mxGeometry width="18" height="22" as="geometry">
            <mxRectangle width="18" height="22" as="alternateBounds" />
          </mxGeometry>
        </mxCell>
        <mxCell id="cLK1sYaVFix4xj5A54oM-50" value="CartItemID" style="shape=partialRectangle;connectable=0;fillColor=none;top=0;left=0;bottom=0;right=0;align=left;spacingLeft=2;overflow=hidden;fontSize=11;" vertex="1" parent="cLK1sYaVFix4xj5A54oM-48">
          <mxGeometry x="18" width="82" height="22" as="geometry">
            <mxRectangle width="82" height="22" as="alternateBounds" />
          </mxGeometry>
        </mxCell>
        <mxCell id="cLK1sYaVFix4xj5A54oM-51" style="shape=tableRow;horizontal=0;startSize=0;swimlaneHead=0;swimlaneBody=0;fillColor=none;collapsible=0;dropTarget=0;points=[[0,0.5],[1,0.5]];portConstraint=eastwest;top=0;left=0;right=0;bottom=0;" vertex="1" parent="cLK1sYaVFix4xj5A54oM-47">
          <mxGeometry y="47" width="100" height="22" as="geometry" />
        </mxCell>
        <mxCell id="cLK1sYaVFix4xj5A54oM-52" value="int" style="shape=partialRectangle;connectable=0;fillColor=none;top=0;left=0;bottom=0;right=0;align=left;spacingLeft=2;overflow=hidden;fontSize=11;" vertex="1" parent="cLK1sYaVFix4xj5A54oM-51">
          <mxGeometry width="18" height="22" as="geometry">
            <mxRectangle width="18" height="22" as="alternateBounds" />
          </mxGeometry>
        </mxCell>
        <mxCell id="cLK1sYaVFix4xj5A54oM-53" value="CartID" style="shape=partialRectangle;connectable=0;fillColor=#d5e8d4;top=0;left=0;bottom=0;right=0;align=left;spacingLeft=2;overflow=hidden;fontSize=11;strokeColor=#82b366;" vertex="1" parent="cLK1sYaVFix4xj5A54oM-51">
          <mxGeometry x="18" width="82" height="22" as="geometry">
            <mxRectangle width="82" height="22" as="alternateBounds" />
          </mxGeometry>
        </mxCell>
        <mxCell id="cLK1sYaVFix4xj5A54oM-54" style="shape=tableRow;horizontal=0;startSize=0;swimlaneHead=0;swimlaneBody=0;fillColor=none;collapsible=0;dropTarget=0;points=[[0,0.5],[1,0.5]];portConstraint=eastwest;top=0;left=0;right=0;bottom=0;" vertex="1" parent="cLK1sYaVFix4xj5A54oM-47">
          <mxGeometry y="69" width="100" height="22" as="geometry" />
        </mxCell>
        <mxCell id="cLK1sYaVFix4xj5A54oM-55" value="int" style="shape=partialRectangle;connectable=0;fillColor=none;top=0;left=0;bottom=0;right=0;align=left;spacingLeft=2;overflow=hidden;fontSize=11;" vertex="1" parent="cLK1sYaVFix4xj5A54oM-54">
          <mxGeometry width="18" height="22" as="geometry">
            <mxRectangle width="18" height="22" as="alternateBounds" />
          </mxGeometry>
        </mxCell>
        <mxCell id="cLK1sYaVFix4xj5A54oM-56" value="ProductID" style="shape=partialRectangle;connectable=0;fillColor=#dae8fc;top=0;left=0;bottom=0;right=0;align=left;spacingLeft=2;overflow=hidden;fontSize=11;strokeColor=#6c8ebf;" vertex="1" parent="cLK1sYaVFix4xj5A54oM-54">
          <mxGeometry x="18" width="82" height="22" as="geometry">
            <mxRectangle width="82" height="22" as="alternateBounds" />
          </mxGeometry>
        </mxCell>
        <mxCell id="cLK1sYaVFix4xj5A54oM-57" style="shape=tableRow;horizontal=0;startSize=0;swimlaneHead=0;swimlaneBody=0;fillColor=none;collapsible=0;dropTarget=0;points=[[0,0.5],[1,0.5]];portConstraint=eastwest;top=0;left=0;right=0;bottom=0;" vertex="1" parent="cLK1sYaVFix4xj5A54oM-47">
          <mxGeometry y="91" width="100" height="22" as="geometry" />
        </mxCell>
        <mxCell id="cLK1sYaVFix4xj5A54oM-58" value="int" style="shape=partialRectangle;connectable=0;fillColor=none;top=0;left=0;bottom=0;right=0;align=left;spacingLeft=2;overflow=hidden;fontSize=11;" vertex="1" parent="cLK1sYaVFix4xj5A54oM-57">
          <mxGeometry width="18" height="22" as="geometry">
            <mxRectangle width="18" height="22" as="alternateBounds" />
          </mxGeometry>
        </mxCell>
        <mxCell id="cLK1sYaVFix4xj5A54oM-59" value="Quantity" style="shape=partialRectangle;connectable=0;fillColor=none;top=0;left=0;bottom=0;right=0;align=left;spacingLeft=2;overflow=hidden;fontSize=11;" vertex="1" parent="cLK1sYaVFix4xj5A54oM-57">
          <mxGeometry x="18" width="82" height="22" as="geometry">
            <mxRectangle width="82" height="22" as="alternateBounds" />
          </mxGeometry>
        </mxCell>
        <mxCell id="cLK1sYaVFix4xj5A54oM-60" value="ORDER" style="shape=table;startSize=25;container=1;collapsible=0;childLayout=tableLayout;fixedRows=1;rowLines=1;fontStyle=1;align=center;resizeLast=1;fillColor=#fff2cc;strokeColor=#d6b656;" vertex="1" parent="1">
          <mxGeometry x="432" y="384" width="105" height="135" as="geometry" />
        </mxCell>
        <mxCell id="cLK1sYaVFix4xj5A54oM-61" style="shape=tableRow;horizontal=0;startSize=0;swimlaneHead=0;swimlaneBody=0;fillColor=none;collapsible=0;dropTarget=0;points=[[0,0.5],[1,0.5]];portConstraint=eastwest;top=0;left=0;right=0;bottom=0;" vertex="1" parent="cLK1sYaVFix4xj5A54oM-60">
          <mxGeometry y="25" width="105" height="22" as="geometry" />
        </mxCell>
        <mxCell id="cLK1sYaVFix4xj5A54oM-62" value="int" style="shape=partialRectangle;connectable=0;fillColor=none;top=0;left=0;bottom=0;right=0;align=left;spacingLeft=2;overflow=hidden;fontSize=11;" vertex="1" parent="cLK1sYaVFix4xj5A54oM-61">
          <mxGeometry width="36" height="22" as="geometry">
            <mxRectangle width="36" height="22" as="alternateBounds" />
          </mxGeometry>
        </mxCell>
        <mxCell id="cLK1sYaVFix4xj5A54oM-63" value="OrderID" style="shape=partialRectangle;connectable=0;fillColor=none;top=0;left=0;bottom=0;right=0;align=left;spacingLeft=2;overflow=hidden;fontSize=11;" vertex="1" parent="cLK1sYaVFix4xj5A54oM-61">
          <mxGeometry x="36" width="69" height="22" as="geometry">
            <mxRectangle width="69" height="22" as="alternateBounds" />
          </mxGeometry>
        </mxCell>
        <mxCell id="cLK1sYaVFix4xj5A54oM-64" style="shape=tableRow;horizontal=0;startSize=0;swimlaneHead=0;swimlaneBody=0;fillColor=none;collapsible=0;dropTarget=0;points=[[0,0.5],[1,0.5]];portConstraint=eastwest;top=0;left=0;right=0;bottom=0;" vertex="1" parent="cLK1sYaVFix4xj5A54oM-60">
          <mxGeometry y="47" width="105" height="22" as="geometry" />
        </mxCell>
        <mxCell id="cLK1sYaVFix4xj5A54oM-65" value="int" style="shape=partialRectangle;connectable=0;fillColor=none;top=0;left=0;bottom=0;right=0;align=left;spacingLeft=2;overflow=hidden;fontSize=11;" vertex="1" parent="cLK1sYaVFix4xj5A54oM-64">
          <mxGeometry width="36" height="22" as="geometry">
            <mxRectangle width="36" height="22" as="alternateBounds" />
          </mxGeometry>
        </mxCell>
        <mxCell id="cLK1sYaVFix4xj5A54oM-66" value="UserID" style="shape=partialRectangle;connectable=0;fillColor=#ffe6cc;top=0;left=0;bottom=0;right=0;align=left;spacingLeft=2;overflow=hidden;fontSize=11;strokeColor=#d79b00;" vertex="1" parent="cLK1sYaVFix4xj5A54oM-64">
          <mxGeometry x="36" width="69" height="22" as="geometry">
            <mxRectangle width="69" height="22" as="alternateBounds" />
          </mxGeometry>
        </mxCell>
        <mxCell id="cLK1sYaVFix4xj5A54oM-67" style="shape=tableRow;horizontal=0;startSize=0;swimlaneHead=0;swimlaneBody=0;fillColor=none;collapsible=0;dropTarget=0;points=[[0,0.5],[1,0.5]];portConstraint=eastwest;top=0;left=0;right=0;bottom=0;" vertex="1" parent="cLK1sYaVFix4xj5A54oM-60">
          <mxGeometry y="69" width="105" height="22" as="geometry" />
        </mxCell>
        <mxCell id="cLK1sYaVFix4xj5A54oM-68" value="date" style="shape=partialRectangle;connectable=0;fillColor=none;top=0;left=0;bottom=0;right=0;align=left;spacingLeft=2;overflow=hidden;fontSize=11;" vertex="1" parent="cLK1sYaVFix4xj5A54oM-67">
          <mxGeometry width="36" height="22" as="geometry">
            <mxRectangle width="36" height="22" as="alternateBounds" />
          </mxGeometry>
        </mxCell>
        <mxCell id="cLK1sYaVFix4xj5A54oM-69" value="OrderDate" style="shape=partialRectangle;connectable=0;fillColor=none;top=0;left=0;bottom=0;right=0;align=left;spacingLeft=2;overflow=hidden;fontSize=11;" vertex="1" parent="cLK1sYaVFix4xj5A54oM-67">
          <mxGeometry x="36" width="69" height="22" as="geometry">
            <mxRectangle width="69" height="22" as="alternateBounds" />
          </mxGeometry>
        </mxCell>
        <mxCell id="cLK1sYaVFix4xj5A54oM-70" style="shape=tableRow;horizontal=0;startSize=0;swimlaneHead=0;swimlaneBody=0;fillColor=none;collapsible=0;dropTarget=0;points=[[0,0.5],[1,0.5]];portConstraint=eastwest;top=0;left=0;right=0;bottom=0;" vertex="1" parent="cLK1sYaVFix4xj5A54oM-60">
          <mxGeometry y="91" width="105" height="22" as="geometry" />
        </mxCell>
        <mxCell id="cLK1sYaVFix4xj5A54oM-71" value="string" style="shape=partialRectangle;connectable=0;fillColor=none;top=0;left=0;bottom=0;right=0;align=left;spacingLeft=2;overflow=hidden;fontSize=11;" vertex="1" parent="cLK1sYaVFix4xj5A54oM-70">
          <mxGeometry width="36" height="22" as="geometry">
            <mxRectangle width="36" height="22" as="alternateBounds" />
          </mxGeometry>
        </mxCell>
        <mxCell id="cLK1sYaVFix4xj5A54oM-72" value="Status" style="shape=partialRectangle;connectable=0;fillColor=none;top=0;left=0;bottom=0;right=0;align=left;spacingLeft=2;overflow=hidden;fontSize=11;" vertex="1" parent="cLK1sYaVFix4xj5A54oM-70">
          <mxGeometry x="36" width="69" height="22" as="geometry">
            <mxRectangle width="69" height="22" as="alternateBounds" />
          </mxGeometry>
        </mxCell>
        <mxCell id="cLK1sYaVFix4xj5A54oM-73" style="shape=tableRow;horizontal=0;startSize=0;swimlaneHead=0;swimlaneBody=0;fillColor=none;collapsible=0;dropTarget=0;points=[[0,0.5],[1,0.5]];portConstraint=eastwest;top=0;left=0;right=0;bottom=0;" vertex="1" parent="cLK1sYaVFix4xj5A54oM-60">
          <mxGeometry y="113" width="105" height="22" as="geometry" />
        </mxCell>
        <mxCell id="cLK1sYaVFix4xj5A54oM-74" value="float" style="shape=partialRectangle;connectable=0;fillColor=none;top=0;left=0;bottom=0;right=0;align=left;spacingLeft=2;overflow=hidden;fontSize=11;" vertex="1" parent="cLK1sYaVFix4xj5A54oM-73">
          <mxGeometry width="36" height="22" as="geometry">
            <mxRectangle width="36" height="22" as="alternateBounds" />
          </mxGeometry>
        </mxCell>
        <mxCell id="cLK1sYaVFix4xj5A54oM-75" value="TotalAmount" style="shape=partialRectangle;connectable=0;fillColor=none;top=0;left=0;bottom=0;right=0;align=left;spacingLeft=2;overflow=hidden;fontSize=11;" vertex="1" parent="cLK1sYaVFix4xj5A54oM-73">
          <mxGeometry x="36" width="69" height="22" as="geometry">
            <mxRectangle width="69" height="22" as="alternateBounds" />
          </mxGeometry>
        </mxCell>
        <mxCell id="cLK1sYaVFix4xj5A54oM-76" value="ORDERITEM" style="shape=table;startSize=25;container=1;collapsible=0;childLayout=tableLayout;fixedRows=1;rowLines=1;fontStyle=1;align=center;resizeLast=1;fillColor=#e1d5e7;strokeColor=#9673a6;" vertex="1" parent="1">
          <mxGeometry x="437" y="610" width="100" height="135" as="geometry" />
        </mxCell>
        <mxCell id="cLK1sYaVFix4xj5A54oM-77" style="shape=tableRow;horizontal=0;startSize=0;swimlaneHead=0;swimlaneBody=0;fillColor=none;collapsible=0;dropTarget=0;points=[[0,0.5],[1,0.5]];portConstraint=eastwest;top=0;left=0;right=0;bottom=0;" vertex="1" parent="cLK1sYaVFix4xj5A54oM-76">
          <mxGeometry y="25" width="100" height="22" as="geometry" />
        </mxCell>
        <mxCell id="cLK1sYaVFix4xj5A54oM-78" value="int" style="shape=partialRectangle;connectable=0;fillColor=none;top=0;left=0;bottom=0;right=0;align=left;spacingLeft=2;overflow=hidden;fontSize=11;" vertex="1" parent="cLK1sYaVFix4xj5A54oM-77">
          <mxGeometry width="30" height="22" as="geometry">
            <mxRectangle width="30" height="22" as="alternateBounds" />
          </mxGeometry>
        </mxCell>
        <mxCell id="cLK1sYaVFix4xj5A54oM-79" value="OrderItemID" style="shape=partialRectangle;connectable=0;fillColor=none;top=0;left=0;bottom=0;right=0;align=left;spacingLeft=2;overflow=hidden;fontSize=11;" vertex="1" parent="cLK1sYaVFix4xj5A54oM-77">
          <mxGeometry x="30" width="70" height="22" as="geometry">
            <mxRectangle width="70" height="22" as="alternateBounds" />
          </mxGeometry>
        </mxCell>
        <mxCell id="cLK1sYaVFix4xj5A54oM-80" style="shape=tableRow;horizontal=0;startSize=0;swimlaneHead=0;swimlaneBody=0;fillColor=none;collapsible=0;dropTarget=0;points=[[0,0.5],[1,0.5]];portConstraint=eastwest;top=0;left=0;right=0;bottom=0;" vertex="1" parent="cLK1sYaVFix4xj5A54oM-76">
          <mxGeometry y="47" width="100" height="22" as="geometry" />
        </mxCell>
        <mxCell id="cLK1sYaVFix4xj5A54oM-81" value="int" style="shape=partialRectangle;connectable=0;fillColor=none;top=0;left=0;bottom=0;right=0;align=left;spacingLeft=2;overflow=hidden;fontSize=11;" vertex="1" parent="cLK1sYaVFix4xj5A54oM-80">
          <mxGeometry width="30" height="22" as="geometry">
            <mxRectangle width="30" height="22" as="alternateBounds" />
          </mxGeometry>
        </mxCell>
        <mxCell id="cLK1sYaVFix4xj5A54oM-82" value="OrderID" style="shape=partialRectangle;connectable=0;fillColor=#fff2cc;top=0;left=0;bottom=0;right=0;align=left;spacingLeft=2;overflow=hidden;fontSize=11;strokeColor=#d6b656;" vertex="1" parent="cLK1sYaVFix4xj5A54oM-80">
          <mxGeometry x="30" width="70" height="22" as="geometry">
            <mxRectangle width="70" height="22" as="alternateBounds" />
          </mxGeometry>
        </mxCell>
        <mxCell id="cLK1sYaVFix4xj5A54oM-83" style="shape=tableRow;horizontal=0;startSize=0;swimlaneHead=0;swimlaneBody=0;fillColor=none;collapsible=0;dropTarget=0;points=[[0,0.5],[1,0.5]];portConstraint=eastwest;top=0;left=0;right=0;bottom=0;" vertex="1" parent="cLK1sYaVFix4xj5A54oM-76">
          <mxGeometry y="69" width="100" height="22" as="geometry" />
        </mxCell>
        <mxCell id="cLK1sYaVFix4xj5A54oM-84" value="int" style="shape=partialRectangle;connectable=0;fillColor=none;top=0;left=0;bottom=0;right=0;align=left;spacingLeft=2;overflow=hidden;fontSize=11;" vertex="1" parent="cLK1sYaVFix4xj5A54oM-83">
          <mxGeometry width="30" height="22" as="geometry">
            <mxRectangle width="30" height="22" as="alternateBounds" />
          </mxGeometry>
        </mxCell>
        <mxCell id="cLK1sYaVFix4xj5A54oM-85" value="ProductID" style="shape=partialRectangle;connectable=0;fillColor=#dae8fc;top=0;left=0;bottom=0;right=0;align=left;spacingLeft=2;overflow=hidden;fontSize=11;strokeColor=#6c8ebf;" vertex="1" parent="cLK1sYaVFix4xj5A54oM-83">
          <mxGeometry x="30" width="70" height="22" as="geometry">
            <mxRectangle width="70" height="22" as="alternateBounds" />
          </mxGeometry>
        </mxCell>
        <mxCell id="cLK1sYaVFix4xj5A54oM-86" style="shape=tableRow;horizontal=0;startSize=0;swimlaneHead=0;swimlaneBody=0;fillColor=none;collapsible=0;dropTarget=0;points=[[0,0.5],[1,0.5]];portConstraint=eastwest;top=0;left=0;right=0;bottom=0;" vertex="1" parent="cLK1sYaVFix4xj5A54oM-76">
          <mxGeometry y="91" width="100" height="22" as="geometry" />
        </mxCell>
        <mxCell id="cLK1sYaVFix4xj5A54oM-87" value="int" style="shape=partialRectangle;connectable=0;fillColor=none;top=0;left=0;bottom=0;right=0;align=left;spacingLeft=2;overflow=hidden;fontSize=11;" vertex="1" parent="cLK1sYaVFix4xj5A54oM-86">
          <mxGeometry width="30" height="22" as="geometry">
            <mxRectangle width="30" height="22" as="alternateBounds" />
          </mxGeometry>
        </mxCell>
        <mxCell id="cLK1sYaVFix4xj5A54oM-88" value="Quantity" style="shape=partialRectangle;connectable=0;fillColor=none;top=0;left=0;bottom=0;right=0;align=left;spacingLeft=2;overflow=hidden;fontSize=11;" vertex="1" parent="cLK1sYaVFix4xj5A54oM-86">
          <mxGeometry x="30" width="70" height="22" as="geometry">
            <mxRectangle width="70" height="22" as="alternateBounds" />
          </mxGeometry>
        </mxCell>
        <mxCell id="cLK1sYaVFix4xj5A54oM-89" style="shape=tableRow;horizontal=0;startSize=0;swimlaneHead=0;swimlaneBody=0;fillColor=none;collapsible=0;dropTarget=0;points=[[0,0.5],[1,0.5]];portConstraint=eastwest;top=0;left=0;right=0;bottom=0;" vertex="1" parent="cLK1sYaVFix4xj5A54oM-76">
          <mxGeometry y="113" width="100" height="22" as="geometry" />
        </mxCell>
        <mxCell id="cLK1sYaVFix4xj5A54oM-90" value="float" style="shape=partialRectangle;connectable=0;fillColor=none;top=0;left=0;bottom=0;right=0;align=left;spacingLeft=2;overflow=hidden;fontSize=11;" vertex="1" parent="cLK1sYaVFix4xj5A54oM-89">
          <mxGeometry width="30" height="22" as="geometry">
            <mxRectangle width="30" height="22" as="alternateBounds" />
          </mxGeometry>
        </mxCell>
        <mxCell id="cLK1sYaVFix4xj5A54oM-91" value="Price" style="shape=partialRectangle;connectable=0;fillColor=none;top=0;left=0;bottom=0;right=0;align=left;spacingLeft=2;overflow=hidden;fontSize=11;" vertex="1" parent="cLK1sYaVFix4xj5A54oM-89">
          <mxGeometry x="30" width="70" height="22" as="geometry">
            <mxRectangle width="70" height="22" as="alternateBounds" />
          </mxGeometry>
        </mxCell>
        <mxCell id="cLK1sYaVFix4xj5A54oM-92" value="has" style="curved=1;startArrow=ERmandOne;startSize=10;;endArrow=ERmany;endSize=10;;exitX=0.004795379638671875;exitY=0.7292879316060944;entryX=0.5006835801260812;entryY=-0.00444441901312934;rounded=0;" edge="1" parent="1" source="cLK1sYaVFix4xj5A54oM-2" target="cLK1sYaVFix4xj5A54oM-37">
          <mxGeometry relative="1" as="geometry">
            <Array as="points">
              <mxPoint x="76" y="312" />
            </Array>
          </mxGeometry>
        </mxCell>
        <mxCell id="cLK1sYaVFix4xj5A54oM-93" value="contains" style="curved=1;startArrow=ERmandOne;startSize=10;;endArrow=ERmany;endSize=10;;exitX=0.5006835801260812;exitY=0.9911111195882162;entryX=0.24776348880821714;entryY=0.0017857892172677176;rounded=0;" edge="1" parent="1" source="cLK1sYaVFix4xj5A54oM-37" target="cLK1sYaVFix4xj5A54oM-47">
          <mxGeometry relative="1" as="geometry">
            <Array as="points">
              <mxPoint x="76" y="589" />
            </Array>
          </mxGeometry>
        </mxCell>
        <mxCell id="cLK1sYaVFix4xj5A54oM-94" value="places" style="curved=1;startArrow=ERmandOne;startSize=10;;endArrow=ERmany;endSize=10;;exitX=1.004795379638672;exitY=0.7292879316060944;entryX=0.5036429995582217;entryY=-0.0029850860140216884;rounded=0;" edge="1" parent="1" source="cLK1sYaVFix4xj5A54oM-2" target="cLK1sYaVFix4xj5A54oM-60">
          <mxGeometry relative="1" as="geometry">
            <Array as="points">
              <mxPoint x="485" y="312" />
            </Array>
          </mxGeometry>
        </mxCell>
        <mxCell id="cLK1sYaVFix4xj5A54oM-95" value="contains" style="curved=1;startArrow=ERmandOne;startSize=10;;endArrow=ERmany;endSize=10;;exitX=0.5036429995582217;exitY=0.9940298849077367;entryX=0.49882514953613283;entryY=0.0014925714749008862;rounded=0;" edge="1" parent="1" source="cLK1sYaVFix4xj5A54oM-60" target="cLK1sYaVFix4xj5A54oM-76">
          <mxGeometry relative="1" as="geometry">
            <Array as="points" />
          </mxGeometry>
        </mxCell>
        <mxCell id="cLK1sYaVFix4xj5A54oM-96" value="is in" style="curved=1;startArrow=ERmandOne;startSize=10;;endArrow=ERmany;endSize=10;;exitX=0.4916972740023744;exitY=0.9955056436945883;entryX=1.0011484146118164;entryY=0.15928231868266352;rounded=0;" edge="1" parent="1" source="cLK1sYaVFix4xj5A54oM-15" target="cLK1sYaVFix4xj5A54oM-47">
          <mxGeometry relative="1" as="geometry">
            <Array as="points">
              <mxPoint x="282" y="589" />
            </Array>
          </mxGeometry>
        </mxCell>
        <mxCell id="cLK1sYaVFix4xj5A54oM-97" value="is in" style="curved=1;startArrow=ERmandOne;startSize=10;;endArrow=ERmany;endSize=10;;exitX=0.981893352433747;exitY=0.6254200359078148;entryX=0.9988251495361328;entryY=0.064179150026236;rounded=0;" edge="1" parent="1" source="cLK1sYaVFix4xj5A54oM-15" target="cLK1sYaVFix4xj5A54oM-76">
          <mxGeometry relative="1" as="geometry">
            <Array as="points">
              <mxPoint x="585" y="589" />
            </Array>
          </mxGeometry>
        </mxCell>
        <mxCell id="pfX8CMZlMrylEQbN-SbV-1" value="&lt;font style=&quot;font-size: 36px;&quot;&gt;ER Diagram&lt;/font&gt;" style="text;html=1;align=center;verticalAlign=middle;whiteSpace=wrap;rounded=0;" vertex="1" parent="1">
          <mxGeometry x="-90" y="170" width="240" height="30" as="geometry" />
        </mxCell>
      </root>
    </mxGraphModel>
  </diagram>
  <diagram id="np2yP48aMoZNgHhKA26-" name="Class Diagram">
    <mxGraphModel dx="1480" dy="522" grid="1" gridSize="10" guides="1" tooltips="1" connect="1" arrows="1" fold="1" page="0" pageScale="1" pageWidth="413" pageHeight="291" math="0" shadow="0">
      <root>
        <mxCell id="0" />
        <mxCell id="1" parent="0" />
        <mxCell id="9dB_ZorWDXVmbkM_SRr3-1" value="User" style="swimlane;fontStyle=1;align=center;verticalAlign=top;childLayout=stackLayout;horizontal=1;startSize=24.8545448996804;horizontalStack=0;resizeParent=1;resizeParentMax=0;resizeLast=0;collapsible=0;marginBottom=0;fillColor=#ffe6cc;strokeColor=#d79b00;" vertex="1" parent="1">
          <mxGeometry x="268" y="20" width="272" height="282.8545448996804" as="geometry" />
        </mxCell>
        <mxCell id="9dB_ZorWDXVmbkM_SRr3-2" value="+int UserID" style="text;strokeColor=none;fillColor=none;align=left;verticalAlign=top;spacingLeft=4;spacingRight=4;overflow=hidden;rotatable=0;points=[[0,0.5],[1,0.5]];portConstraint=eastwest;" vertex="1" parent="9dB_ZorWDXVmbkM_SRr3-1">
          <mxGeometry y="24.8545448996804" width="272" height="25" as="geometry" />
        </mxCell>
        <mxCell id="9dB_ZorWDXVmbkM_SRr3-3" value="+string Name" style="text;strokeColor=none;fillColor=none;align=left;verticalAlign=top;spacingLeft=4;spacingRight=4;overflow=hidden;rotatable=0;points=[[0,0.5],[1,0.5]];portConstraint=eastwest;" vertex="1" parent="9dB_ZorWDXVmbkM_SRr3-1">
          <mxGeometry y="49.8545448996804" width="272" height="25" as="geometry" />
        </mxCell>
        <mxCell id="9dB_ZorWDXVmbkM_SRr3-4" value="+string Email" style="text;strokeColor=none;fillColor=none;align=left;verticalAlign=top;spacingLeft=4;spacingRight=4;overflow=hidden;rotatable=0;points=[[0,0.5],[1,0.5]];portConstraint=eastwest;" vertex="1" parent="9dB_ZorWDXVmbkM_SRr3-1">
          <mxGeometry y="74.8545448996804" width="272" height="25" as="geometry" />
        </mxCell>
        <mxCell id="9dB_ZorWDXVmbkM_SRr3-5" value="+string Password" style="text;strokeColor=none;fillColor=none;align=left;verticalAlign=top;spacingLeft=4;spacingRight=4;overflow=hidden;rotatable=0;points=[[0,0.5],[1,0.5]];portConstraint=eastwest;" vertex="1" parent="9dB_ZorWDXVmbkM_SRr3-1">
          <mxGeometry y="99.8545448996804" width="272" height="25" as="geometry" />
        </mxCell>
        <mxCell id="9dB_ZorWDXVmbkM_SRr3-6" style="line;strokeWidth=1;fillColor=none;align=left;verticalAlign=middle;spacingTop=-1;spacingLeft=3;spacingRight=3;rotatable=0;labelPosition=right;points=[];portConstraint=eastwest;strokeColor=inherit;" vertex="1" parent="9dB_ZorWDXVmbkM_SRr3-1">
          <mxGeometry y="124.8545448996804" width="272" height="8" as="geometry" />
        </mxCell>
        <mxCell id="9dB_ZorWDXVmbkM_SRr3-7" value="+viewProductList()" style="text;strokeColor=none;fillColor=none;align=left;verticalAlign=top;spacingLeft=4;spacingRight=4;overflow=hidden;rotatable=0;points=[[0,0.5],[1,0.5]];portConstraint=eastwest;" vertex="1" parent="9dB_ZorWDXVmbkM_SRr3-1">
          <mxGeometry y="132.8545448996804" width="272" height="25" as="geometry" />
        </mxCell>
        <mxCell id="9dB_ZorWDXVmbkM_SRr3-8" value="+searchProducts(keywords: string)" style="text;strokeColor=none;fillColor=none;align=left;verticalAlign=top;spacingLeft=4;spacingRight=4;overflow=hidden;rotatable=0;points=[[0,0.5],[1,0.5]];portConstraint=eastwest;" vertex="1" parent="9dB_ZorWDXVmbkM_SRr3-1">
          <mxGeometry y="157.8545448996804" width="272" height="25" as="geometry" />
        </mxCell>
        <mxCell id="9dB_ZorWDXVmbkM_SRr3-9" value="+filterProducts(criteria: string)" style="text;strokeColor=none;fillColor=none;align=left;verticalAlign=top;spacingLeft=4;spacingRight=4;overflow=hidden;rotatable=0;points=[[0,0.5],[1,0.5]];portConstraint=eastwest;" vertex="1" parent="9dB_ZorWDXVmbkM_SRr3-1">
          <mxGeometry y="182.8545448996804" width="272" height="25" as="geometry" />
        </mxCell>
        <mxCell id="9dB_ZorWDXVmbkM_SRr3-10" value="+viewProductDetails(productID: int)" style="text;strokeColor=none;fillColor=none;align=left;verticalAlign=top;spacingLeft=4;spacingRight=4;overflow=hidden;rotatable=0;points=[[0,0.5],[1,0.5]];portConstraint=eastwest;" vertex="1" parent="9dB_ZorWDXVmbkM_SRr3-1">
          <mxGeometry y="207.8545448996804" width="272" height="25" as="geometry" />
        </mxCell>
        <mxCell id="9dB_ZorWDXVmbkM_SRr3-11" value="+viewShoppingCart()" style="text;strokeColor=none;fillColor=none;align=left;verticalAlign=top;spacingLeft=4;spacingRight=4;overflow=hidden;rotatable=0;points=[[0,0.5],[1,0.5]];portConstraint=eastwest;" vertex="1" parent="9dB_ZorWDXVmbkM_SRr3-1">
          <mxGeometry y="232.8545448996804" width="272" height="25" as="geometry" />
        </mxCell>
        <mxCell id="9dB_ZorWDXVmbkM_SRr3-12" value="+proceedToCheckout()" style="text;strokeColor=none;fillColor=none;align=left;verticalAlign=top;spacingLeft=4;spacingRight=4;overflow=hidden;rotatable=0;points=[[0,0.5],[1,0.5]];portConstraint=eastwest;" vertex="1" parent="9dB_ZorWDXVmbkM_SRr3-1">
          <mxGeometry y="257.8545448996804" width="272" height="25" as="geometry" />
        </mxCell>
        <mxCell id="9dB_ZorWDXVmbkM_SRr3-13" value="Product" style="swimlane;fontStyle=1;align=center;verticalAlign=top;childLayout=stackLayout;horizontal=1;startSize=25.400000678168404;horizontalStack=0;resizeParent=1;resizeParentMax=0;resizeLast=0;collapsible=0;marginBottom=0;fillColor=#dae8fc;strokeColor=#6c8ebf;" vertex="1" parent="1">
          <mxGeometry x="365" y="370" width="149" height="233.4000006781684" as="geometry" />
        </mxCell>
        <mxCell id="9dB_ZorWDXVmbkM_SRr3-14" value="+int ProductID" style="text;strokeColor=none;fillColor=none;align=left;verticalAlign=top;spacingLeft=4;spacingRight=4;overflow=hidden;rotatable=0;points=[[0,0.5],[1,0.5]];portConstraint=eastwest;" vertex="1" parent="9dB_ZorWDXVmbkM_SRr3-13">
          <mxGeometry y="25.400000678168404" width="149" height="25" as="geometry" />
        </mxCell>
        <mxCell id="9dB_ZorWDXVmbkM_SRr3-15" value="+string Name" style="text;strokeColor=none;fillColor=none;align=left;verticalAlign=top;spacingLeft=4;spacingRight=4;overflow=hidden;rotatable=0;points=[[0,0.5],[1,0.5]];portConstraint=eastwest;" vertex="1" parent="9dB_ZorWDXVmbkM_SRr3-13">
          <mxGeometry y="50.400000678168404" width="149" height="25" as="geometry" />
        </mxCell>
        <mxCell id="9dB_ZorWDXVmbkM_SRr3-16" value="+string Description" style="text;strokeColor=none;fillColor=none;align=left;verticalAlign=top;spacingLeft=4;spacingRight=4;overflow=hidden;rotatable=0;points=[[0,0.5],[1,0.5]];portConstraint=eastwest;" vertex="1" parent="9dB_ZorWDXVmbkM_SRr3-13">
          <mxGeometry y="75.4000006781684" width="149" height="25" as="geometry" />
        </mxCell>
        <mxCell id="9dB_ZorWDXVmbkM_SRr3-17" value="+float Price" style="text;strokeColor=none;fillColor=none;align=left;verticalAlign=top;spacingLeft=4;spacingRight=4;overflow=hidden;rotatable=0;points=[[0,0.5],[1,0.5]];portConstraint=eastwest;" vertex="1" parent="9dB_ZorWDXVmbkM_SRr3-13">
          <mxGeometry y="100.4000006781684" width="149" height="25" as="geometry" />
        </mxCell>
        <mxCell id="9dB_ZorWDXVmbkM_SRr3-18" value="+string Category" style="text;strokeColor=none;fillColor=none;align=left;verticalAlign=top;spacingLeft=4;spacingRight=4;overflow=hidden;rotatable=0;points=[[0,0.5],[1,0.5]];portConstraint=eastwest;" vertex="1" parent="9dB_ZorWDXVmbkM_SRr3-13">
          <mxGeometry y="125.4000006781684" width="149" height="25" as="geometry" />
        </mxCell>
        <mxCell id="9dB_ZorWDXVmbkM_SRr3-19" value="+string Brand" style="text;strokeColor=none;fillColor=none;align=left;verticalAlign=top;spacingLeft=4;spacingRight=4;overflow=hidden;rotatable=0;points=[[0,0.5],[1,0.5]];portConstraint=eastwest;" vertex="1" parent="9dB_ZorWDXVmbkM_SRr3-13">
          <mxGeometry y="150.4000006781684" width="149" height="25" as="geometry" />
        </mxCell>
        <mxCell id="9dB_ZorWDXVmbkM_SRr3-20" value="+float Rating" style="text;strokeColor=none;fillColor=none;align=left;verticalAlign=top;spacingLeft=4;spacingRight=4;overflow=hidden;rotatable=0;points=[[0,0.5],[1,0.5]];portConstraint=eastwest;" vertex="1" parent="9dB_ZorWDXVmbkM_SRr3-13">
          <mxGeometry y="175.4000006781684" width="149" height="25" as="geometry" />
        </mxCell>
        <mxCell id="9dB_ZorWDXVmbkM_SRr3-21" style="line;strokeWidth=1;fillColor=none;align=left;verticalAlign=middle;spacingTop=-1;spacingLeft=3;spacingRight=3;rotatable=0;labelPosition=right;points=[];portConstraint=eastwest;strokeColor=inherit;" vertex="1" parent="9dB_ZorWDXVmbkM_SRr3-13">
          <mxGeometry y="200.4000006781684" width="149" height="8" as="geometry" />
        </mxCell>
        <mxCell id="9dB_ZorWDXVmbkM_SRr3-22" value="+viewDetails()" style="text;strokeColor=none;fillColor=none;align=left;verticalAlign=top;spacingLeft=4;spacingRight=4;overflow=hidden;rotatable=0;points=[[0,0.5],[1,0.5]];portConstraint=eastwest;" vertex="1" parent="9dB_ZorWDXVmbkM_SRr3-13">
          <mxGeometry y="208.4000006781684" width="149" height="25" as="geometry" />
        </mxCell>
        <mxCell id="9dB_ZorWDXVmbkM_SRr3-23" value="ShoppingCart" style="swimlane;fontStyle=1;align=center;verticalAlign=top;childLayout=stackLayout;horizontal=1;startSize=26.25714329310826;horizontalStack=0;resizeParent=1;resizeParentMax=0;resizeLast=0;collapsible=0;marginBottom=0;fillColor=#d5e8d4;strokeColor=#82b366;" vertex="1" parent="1">
          <mxGeometry x="20" y="392" width="295" height="190.25714329310824" as="geometry" />
        </mxCell>
        <mxCell id="9dB_ZorWDXVmbkM_SRr3-24" value="+int CartID" style="text;strokeColor=none;fillColor=none;align=left;verticalAlign=top;spacingLeft=4;spacingRight=4;overflow=hidden;rotatable=0;points=[[0,0.5],[1,0.5]];portConstraint=eastwest;" vertex="1" parent="9dB_ZorWDXVmbkM_SRr3-23">
          <mxGeometry y="26.25714329310826" width="295" height="26" as="geometry" />
        </mxCell>
        <mxCell id="9dB_ZorWDXVmbkM_SRr3-25" value="+int UserID" style="text;strokeColor=none;fillColor=none;align=left;verticalAlign=top;spacingLeft=4;spacingRight=4;overflow=hidden;rotatable=0;points=[[0,0.5],[1,0.5]];portConstraint=eastwest;" vertex="1" parent="9dB_ZorWDXVmbkM_SRr3-23">
          <mxGeometry y="52.25714329310826" width="295" height="26" as="geometry" />
        </mxCell>
        <mxCell id="9dB_ZorWDXVmbkM_SRr3-26" value="+date CreatedDate" style="text;strokeColor=none;fillColor=none;align=left;verticalAlign=top;spacingLeft=4;spacingRight=4;overflow=hidden;rotatable=0;points=[[0,0.5],[1,0.5]];portConstraint=eastwest;" vertex="1" parent="9dB_ZorWDXVmbkM_SRr3-23">
          <mxGeometry y="78.25714329310826" width="295" height="26" as="geometry" />
        </mxCell>
        <mxCell id="9dB_ZorWDXVmbkM_SRr3-27" style="line;strokeWidth=1;fillColor=none;align=left;verticalAlign=middle;spacingTop=-1;spacingLeft=3;spacingRight=3;rotatable=0;labelPosition=right;points=[];portConstraint=eastwest;strokeColor=inherit;" vertex="1" parent="9dB_ZorWDXVmbkM_SRr3-23">
          <mxGeometry y="104.25714329310826" width="295" height="8" as="geometry" />
        </mxCell>
        <mxCell id="9dB_ZorWDXVmbkM_SRr3-28" value="+addItem(productID: int, quantity: int)" style="text;strokeColor=none;fillColor=none;align=left;verticalAlign=top;spacingLeft=4;spacingRight=4;overflow=hidden;rotatable=0;points=[[0,0.5],[1,0.5]];portConstraint=eastwest;" vertex="1" parent="9dB_ZorWDXVmbkM_SRr3-23">
          <mxGeometry y="112.25714329310826" width="295" height="26" as="geometry" />
        </mxCell>
        <mxCell id="9dB_ZorWDXVmbkM_SRr3-29" value="+removeItem(cartItemID: int)" style="text;strokeColor=none;fillColor=none;align=left;verticalAlign=top;spacingLeft=4;spacingRight=4;overflow=hidden;rotatable=0;points=[[0,0.5],[1,0.5]];portConstraint=eastwest;" vertex="1" parent="9dB_ZorWDXVmbkM_SRr3-23">
          <mxGeometry y="138.25714329310824" width="295" height="26" as="geometry" />
        </mxCell>
        <mxCell id="9dB_ZorWDXVmbkM_SRr3-30" value="+viewCart()" style="text;strokeColor=none;fillColor=none;align=left;verticalAlign=top;spacingLeft=4;spacingRight=4;overflow=hidden;rotatable=0;points=[[0,0.5],[1,0.5]];portConstraint=eastwest;" vertex="1" parent="9dB_ZorWDXVmbkM_SRr3-23">
          <mxGeometry y="164.25714329310824" width="295" height="26" as="geometry" />
        </mxCell>
        <mxCell id="9dB_ZorWDXVmbkM_SRr3-31" value="CartItem" style="swimlane;fontStyle=1;align=center;verticalAlign=top;childLayout=stackLayout;horizontal=1;startSize=26.899998982747395;horizontalStack=0;resizeParent=1;resizeParentMax=0;resizeLast=0;collapsible=0;marginBottom=0;fillColor=#f8cecc;strokeColor=#b85450;" vertex="1" parent="1">
          <mxGeometry x="162" y="686" width="140" height="169.89999898274738" as="geometry" />
        </mxCell>
        <mxCell id="9dB_ZorWDXVmbkM_SRr3-32" value="+int CartItemID" style="text;strokeColor=none;fillColor=none;align=left;verticalAlign=top;spacingLeft=4;spacingRight=4;overflow=hidden;rotatable=0;points=[[0,0.5],[1,0.5]];portConstraint=eastwest;" vertex="1" parent="9dB_ZorWDXVmbkM_SRr3-31">
          <mxGeometry y="26.899998982747395" width="140" height="27" as="geometry" />
        </mxCell>
        <mxCell id="9dB_ZorWDXVmbkM_SRr3-33" value="+int CartID" style="text;strokeColor=none;fillColor=none;align=left;verticalAlign=top;spacingLeft=4;spacingRight=4;overflow=hidden;rotatable=0;points=[[0,0.5],[1,0.5]];portConstraint=eastwest;" vertex="1" parent="9dB_ZorWDXVmbkM_SRr3-31">
          <mxGeometry y="53.89999898274739" width="140" height="27" as="geometry" />
        </mxCell>
        <mxCell id="9dB_ZorWDXVmbkM_SRr3-34" value="+int ProductID" style="text;strokeColor=none;fillColor=none;align=left;verticalAlign=top;spacingLeft=4;spacingRight=4;overflow=hidden;rotatable=0;points=[[0,0.5],[1,0.5]];portConstraint=eastwest;" vertex="1" parent="9dB_ZorWDXVmbkM_SRr3-31">
          <mxGeometry y="80.89999898274739" width="140" height="27" as="geometry" />
        </mxCell>
        <mxCell id="9dB_ZorWDXVmbkM_SRr3-35" value="+int Quantity" style="text;strokeColor=none;fillColor=none;align=left;verticalAlign=top;spacingLeft=4;spacingRight=4;overflow=hidden;rotatable=0;points=[[0,0.5],[1,0.5]];portConstraint=eastwest;" vertex="1" parent="9dB_ZorWDXVmbkM_SRr3-31">
          <mxGeometry y="107.89999898274739" width="140" height="27" as="geometry" />
        </mxCell>
        <mxCell id="9dB_ZorWDXVmbkM_SRr3-36" style="line;strokeWidth=1;fillColor=none;align=left;verticalAlign=middle;spacingTop=-1;spacingLeft=3;spacingRight=3;rotatable=0;labelPosition=right;points=[];portConstraint=eastwest;strokeColor=inherit;" vertex="1" parent="9dB_ZorWDXVmbkM_SRr3-31">
          <mxGeometry y="134.89999898274738" width="140" height="8" as="geometry" />
        </mxCell>
        <mxCell id="9dB_ZorWDXVmbkM_SRr3-37" value="+getItemDetails()" style="text;strokeColor=none;fillColor=none;align=left;verticalAlign=top;spacingLeft=4;spacingRight=4;overflow=hidden;rotatable=0;points=[[0,0.5],[1,0.5]];portConstraint=eastwest;" vertex="1" parent="9dB_ZorWDXVmbkM_SRr3-31">
          <mxGeometry y="142.89999898274738" width="140" height="27" as="geometry" />
        </mxCell>
        <mxCell id="9dB_ZorWDXVmbkM_SRr3-38" value="Order" style="swimlane;fontStyle=1;align=center;verticalAlign=top;childLayout=stackLayout;horizontal=1;startSize=26.25714329310826;horizontalStack=0;resizeParent=1;resizeParentMax=0;resizeLast=0;collapsible=0;marginBottom=0;fillColor=#fff2cc;strokeColor=#d6b656;" vertex="1" parent="1">
          <mxGeometry x="565" y="392" width="152" height="190.25714329310824" as="geometry" />
        </mxCell>
        <mxCell id="9dB_ZorWDXVmbkM_SRr3-39" value="+int OrderID" style="text;strokeColor=none;fillColor=none;align=left;verticalAlign=top;spacingLeft=4;spacingRight=4;overflow=hidden;rotatable=0;points=[[0,0.5],[1,0.5]];portConstraint=eastwest;" vertex="1" parent="9dB_ZorWDXVmbkM_SRr3-38">
          <mxGeometry y="26.25714329310826" width="152" height="26" as="geometry" />
        </mxCell>
        <mxCell id="9dB_ZorWDXVmbkM_SRr3-40" value="+int UserID" style="text;strokeColor=none;fillColor=none;align=left;verticalAlign=top;spacingLeft=4;spacingRight=4;overflow=hidden;rotatable=0;points=[[0,0.5],[1,0.5]];portConstraint=eastwest;" vertex="1" parent="9dB_ZorWDXVmbkM_SRr3-38">
          <mxGeometry y="52.25714329310826" width="152" height="26" as="geometry" />
        </mxCell>
        <mxCell id="9dB_ZorWDXVmbkM_SRr3-41" value="+date OrderDate" style="text;strokeColor=none;fillColor=none;align=left;verticalAlign=top;spacingLeft=4;spacingRight=4;overflow=hidden;rotatable=0;points=[[0,0.5],[1,0.5]];portConstraint=eastwest;" vertex="1" parent="9dB_ZorWDXVmbkM_SRr3-38">
          <mxGeometry y="78.25714329310826" width="152" height="26" as="geometry" />
        </mxCell>
        <mxCell id="9dB_ZorWDXVmbkM_SRr3-42" value="+string Status" style="text;strokeColor=none;fillColor=none;align=left;verticalAlign=top;spacingLeft=4;spacingRight=4;overflow=hidden;rotatable=0;points=[[0,0.5],[1,0.5]];portConstraint=eastwest;" vertex="1" parent="9dB_ZorWDXVmbkM_SRr3-38">
          <mxGeometry y="104.25714329310826" width="152" height="26" as="geometry" />
        </mxCell>
        <mxCell id="9dB_ZorWDXVmbkM_SRr3-43" value="+float TotalAmount" style="text;strokeColor=none;fillColor=none;align=left;verticalAlign=top;spacingLeft=4;spacingRight=4;overflow=hidden;rotatable=0;points=[[0,0.5],[1,0.5]];portConstraint=eastwest;" vertex="1" parent="9dB_ZorWDXVmbkM_SRr3-38">
          <mxGeometry y="130.25714329310824" width="152" height="26" as="geometry" />
        </mxCell>
        <mxCell id="9dB_ZorWDXVmbkM_SRr3-44" style="line;strokeWidth=1;fillColor=none;align=left;verticalAlign=middle;spacingTop=-1;spacingLeft=3;spacingRight=3;rotatable=0;labelPosition=right;points=[];portConstraint=eastwest;strokeColor=inherit;" vertex="1" parent="9dB_ZorWDXVmbkM_SRr3-38">
          <mxGeometry y="156.25714329310824" width="152" height="8" as="geometry" />
        </mxCell>
        <mxCell id="9dB_ZorWDXVmbkM_SRr3-45" value="+placeOrder()" style="text;strokeColor=none;fillColor=none;align=left;verticalAlign=top;spacingLeft=4;spacingRight=4;overflow=hidden;rotatable=0;points=[[0,0.5],[1,0.5]];portConstraint=eastwest;" vertex="1" parent="9dB_ZorWDXVmbkM_SRr3-38">
          <mxGeometry y="164.25714329310824" width="152" height="26" as="geometry" />
        </mxCell>
        <mxCell id="9dB_ZorWDXVmbkM_SRr3-46" value="OrderItem" style="swimlane;fontStyle=1;align=center;verticalAlign=top;childLayout=stackLayout;horizontal=1;startSize=26.25714329310826;horizontalStack=0;resizeParent=1;resizeParentMax=0;resizeLast=0;collapsible=0;marginBottom=0;fillColor=#e1d5e7;strokeColor=#9673a6;" vertex="1" parent="1">
          <mxGeometry x="571" y="675" width="140" height="190.25714329310824" as="geometry" />
        </mxCell>
        <mxCell id="9dB_ZorWDXVmbkM_SRr3-47" value="+int OrderItemID" style="text;strokeColor=none;fillColor=none;align=left;verticalAlign=top;spacingLeft=4;spacingRight=4;overflow=hidden;rotatable=0;points=[[0,0.5],[1,0.5]];portConstraint=eastwest;" vertex="1" parent="9dB_ZorWDXVmbkM_SRr3-46">
          <mxGeometry y="26.25714329310826" width="140" height="26" as="geometry" />
        </mxCell>
        <mxCell id="9dB_ZorWDXVmbkM_SRr3-48" value="+int OrderID" style="text;strokeColor=none;fillColor=none;align=left;verticalAlign=top;spacingLeft=4;spacingRight=4;overflow=hidden;rotatable=0;points=[[0,0.5],[1,0.5]];portConstraint=eastwest;" vertex="1" parent="9dB_ZorWDXVmbkM_SRr3-46">
          <mxGeometry y="52.25714329310826" width="140" height="26" as="geometry" />
        </mxCell>
        <mxCell id="9dB_ZorWDXVmbkM_SRr3-49" value="+int ProductID" style="text;strokeColor=none;fillColor=none;align=left;verticalAlign=top;spacingLeft=4;spacingRight=4;overflow=hidden;rotatable=0;points=[[0,0.5],[1,0.5]];portConstraint=eastwest;" vertex="1" parent="9dB_ZorWDXVmbkM_SRr3-46">
          <mxGeometry y="78.25714329310826" width="140" height="26" as="geometry" />
        </mxCell>
        <mxCell id="9dB_ZorWDXVmbkM_SRr3-50" value="+int Quantity" style="text;strokeColor=none;fillColor=none;align=left;verticalAlign=top;spacingLeft=4;spacingRight=4;overflow=hidden;rotatable=0;points=[[0,0.5],[1,0.5]];portConstraint=eastwest;" vertex="1" parent="9dB_ZorWDXVmbkM_SRr3-46">
          <mxGeometry y="104.25714329310826" width="140" height="26" as="geometry" />
        </mxCell>
        <mxCell id="9dB_ZorWDXVmbkM_SRr3-51" value="+float Price" style="text;strokeColor=none;fillColor=none;align=left;verticalAlign=top;spacingLeft=4;spacingRight=4;overflow=hidden;rotatable=0;points=[[0,0.5],[1,0.5]];portConstraint=eastwest;" vertex="1" parent="9dB_ZorWDXVmbkM_SRr3-46">
          <mxGeometry y="130.25714329310824" width="140" height="26" as="geometry" />
        </mxCell>
        <mxCell id="9dB_ZorWDXVmbkM_SRr3-52" style="line;strokeWidth=1;fillColor=none;align=left;verticalAlign=middle;spacingTop=-1;spacingLeft=3;spacingRight=3;rotatable=0;labelPosition=right;points=[];portConstraint=eastwest;strokeColor=inherit;" vertex="1" parent="9dB_ZorWDXVmbkM_SRr3-46">
          <mxGeometry y="156.25714329310824" width="140" height="8" as="geometry" />
        </mxCell>
        <mxCell id="9dB_ZorWDXVmbkM_SRr3-53" value="+getItemDetails()" style="text;strokeColor=none;fillColor=none;align=left;verticalAlign=top;spacingLeft=4;spacingRight=4;overflow=hidden;rotatable=0;points=[[0,0.5],[1,0.5]];portConstraint=eastwest;" vertex="1" parent="9dB_ZorWDXVmbkM_SRr3-46">
          <mxGeometry y="164.25714329310824" width="140" height="26" as="geometry" />
        </mxCell>
        <mxCell id="9dB_ZorWDXVmbkM_SRr3-54" value="owns" style="curved=1;startArrow=none;endArrow=none;exitX=0.0008100481594310087;exitY=0.8588337738250366;entryX=0.5007203700178761;entryY=0.001041640837987264;rounded=0;" edge="1" parent="1" source="9dB_ZorWDXVmbkM_SRr3-1" target="9dB_ZorWDXVmbkM_SRr3-23">
          <mxGeometry relative="1" as="geometry">
            <Array as="points">
              <mxPoint x="168" y="336" />
            </Array>
          </mxGeometry>
        </mxCell>
        <mxCell id="9dB_ZorWDXVmbkM_SRr3-55" value="1" style="edgeLabel;resizable=0;labelBackgroundColor=none;fontSize=12;align=right;verticalAlign=top;" vertex="1" parent="9dB_ZorWDXVmbkM_SRr3-54">
          <mxGeometry x="-1" relative="1" as="geometry" />
        </mxCell>
        <mxCell id="9dB_ZorWDXVmbkM_SRr3-56" value="1" style="edgeLabel;resizable=0;labelBackgroundColor=none;fontSize=12;align=left;verticalAlign=bottom;" vertex="1" parent="9dB_ZorWDXVmbkM_SRr3-54">
          <mxGeometry x="1" relative="1" as="geometry" />
        </mxCell>
        <mxCell id="9dB_ZorWDXVmbkM_SRr3-57" value="contains" style="curved=1;startArrow=none;endArrow=none;exitX=0.5007203700178761;exitY=0.9999999900658926;entryX=0.20152885263344017;entryY=2.2572173169378698e-8;rounded=0;" edge="1" parent="1" source="9dB_ZorWDXVmbkM_SRr3-23" target="9dB_ZorWDXVmbkM_SRr3-31">
          <mxGeometry relative="1" as="geometry">
            <Array as="points">
              <mxPoint x="168" y="641" />
            </Array>
          </mxGeometry>
        </mxCell>
        <mxCell id="9dB_ZorWDXVmbkM_SRr3-58" value="1" style="edgeLabel;resizable=0;labelBackgroundColor=none;fontSize=12;align=right;verticalAlign=top;" vertex="1" parent="9dB_ZorWDXVmbkM_SRr3-57">
          <mxGeometry x="-1" relative="1" as="geometry" />
        </mxCell>
        <mxCell id="9dB_ZorWDXVmbkM_SRr3-59" value="many" style="edgeLabel;resizable=0;labelBackgroundColor=none;fontSize=12;align=left;verticalAlign=bottom;" vertex="1" parent="9dB_ZorWDXVmbkM_SRr3-57">
          <mxGeometry x="1" relative="1" as="geometry" />
        </mxCell>
        <mxCell id="9dB_ZorWDXVmbkM_SRr3-60" value="places" style="curved=1;startArrow=none;endArrow=none;exitX=1.0021887246300192;exitY=0.8588337738250366;entryX=0.5006786647595858;entryY=0.001041640837987264;rounded=0;" edge="1" parent="1" source="9dB_ZorWDXVmbkM_SRr3-1" target="9dB_ZorWDXVmbkM_SRr3-38">
          <mxGeometry relative="1" as="geometry">
            <Array as="points">
              <mxPoint x="641" y="336" />
            </Array>
          </mxGeometry>
        </mxCell>
        <mxCell id="9dB_ZorWDXVmbkM_SRr3-61" value="1" style="edgeLabel;resizable=0;labelBackgroundColor=none;fontSize=12;align=left;verticalAlign=top;" vertex="1" parent="9dB_ZorWDXVmbkM_SRr3-60">
          <mxGeometry x="-1" relative="1" as="geometry" />
        </mxCell>
        <mxCell id="9dB_ZorWDXVmbkM_SRr3-62" value="many" style="edgeLabel;resizable=0;labelBackgroundColor=none;fontSize=12;align=right;verticalAlign=bottom;" vertex="1" parent="9dB_ZorWDXVmbkM_SRr3-60">
          <mxGeometry x="1" relative="1" as="geometry" />
        </mxCell>
        <mxCell id="9dB_ZorWDXVmbkM_SRr3-63" value="contains" style="curved=1;startArrow=none;endArrow=none;exitX=0.5006786647595858;exitY=0.9999999900658926;entryX=0.5007368360246931;entryY=-0.0010416706403096516;rounded=0;" edge="1" parent="1" source="9dB_ZorWDXVmbkM_SRr3-38" target="9dB_ZorWDXVmbkM_SRr3-46">
          <mxGeometry relative="1" as="geometry">
            <Array as="points" />
          </mxGeometry>
        </mxCell>
        <mxCell id="9dB_ZorWDXVmbkM_SRr3-64" value="1" style="edgeLabel;resizable=0;labelBackgroundColor=none;fontSize=12;align=right;verticalAlign=top;" vertex="1" parent="9dB_ZorWDXVmbkM_SRr3-63">
          <mxGeometry x="-1" relative="1" as="geometry" />
        </mxCell>
        <mxCell id="9dB_ZorWDXVmbkM_SRr3-65" value="many" style="edgeLabel;resizable=0;labelBackgroundColor=none;fontSize=12;align=left;verticalAlign=bottom;" vertex="1" parent="9dB_ZorWDXVmbkM_SRr3-63">
          <mxGeometry x="1" relative="1" as="geometry" />
        </mxCell>
        <mxCell id="9dB_ZorWDXVmbkM_SRr3-66" value="is in" style="curved=1;startArrow=none;endArrow=none;exitX=0.5044045160280778;exitY=0.9974683528208028;entryX=1.0017411708831787;entryY=0.24187675917875645;rounded=0;" edge="1" parent="1" source="9dB_ZorWDXVmbkM_SRr3-13" target="9dB_ZorWDXVmbkM_SRr3-31">
          <mxGeometry relative="1" as="geometry">
            <Array as="points">
              <mxPoint x="440" y="641" />
            </Array>
          </mxGeometry>
        </mxCell>
        <mxCell id="9dB_ZorWDXVmbkM_SRr3-67" value="1" style="edgeLabel;resizable=0;labelBackgroundColor=none;fontSize=12;align=right;verticalAlign=top;" vertex="1" parent="9dB_ZorWDXVmbkM_SRr3-66">
          <mxGeometry x="-1" relative="1" as="geometry" />
        </mxCell>
        <mxCell id="9dB_ZorWDXVmbkM_SRr3-68" value="many" style="edgeLabel;resizable=0;labelBackgroundColor=none;fontSize=12;align=left;verticalAlign=bottom;" vertex="1" parent="9dB_ZorWDXVmbkM_SRr3-66">
          <mxGeometry x="1" relative="1" as="geometry" />
        </mxCell>
        <mxCell id="9dB_ZorWDXVmbkM_SRr3-69" value="is in" style="curved=1;startArrow=none;endArrow=none;exitX=1.0059565601732907;exitY=0.679478274556505;entryX=0.8402422754972649;entryY=-0.0010416706403096516;rounded=0;" edge="1" parent="1" source="9dB_ZorWDXVmbkM_SRr3-13" target="9dB_ZorWDXVmbkM_SRr3-46">
          <mxGeometry relative="1" as="geometry">
            <Array as="points">
              <mxPoint x="706" y="641" />
            </Array>
          </mxGeometry>
        </mxCell>
        <mxCell id="9dB_ZorWDXVmbkM_SRr3-70" value="1" style="edgeLabel;resizable=0;labelBackgroundColor=none;fontSize=12;align=left;verticalAlign=top;" vertex="1" parent="9dB_ZorWDXVmbkM_SRr3-69">
          <mxGeometry x="-1" relative="1" as="geometry" />
        </mxCell>
        <mxCell id="9dB_ZorWDXVmbkM_SRr3-71" value="many" style="edgeLabel;resizable=0;labelBackgroundColor=none;fontSize=12;align=right;verticalAlign=bottom;" vertex="1" parent="9dB_ZorWDXVmbkM_SRr3-69">
          <mxGeometry x="1" relative="1" as="geometry" />
        </mxCell>
        <mxCell id="OhsF6ZmlzgGi2NAUsktI-1" value="&lt;font style=&quot;font-size: 36px;&quot;&gt;Class Diagram&lt;/font&gt;" style="text;html=1;align=center;verticalAlign=middle;whiteSpace=wrap;rounded=0;" vertex="1" parent="1">
          <mxGeometry x="-80" y="50" width="240" height="30" as="geometry" />
        </mxCell>
      </root>
    </mxGraphModel>
  </diagram>
  <diagram id="Qr4ePB9IJHQ0eGu4JTOI" name="WireFrame">
    <mxGraphModel dx="1436" dy="942" grid="1" gridSize="10" guides="1" tooltips="1" connect="1" arrows="1" fold="1" page="0" pageScale="1" pageWidth="413" pageHeight="291" math="0" shadow="0">
      <root>
        <mxCell id="0" />
        <mxCell id="1" parent="0" />
        <mxCell id="9v7a4TPCFyJCmWpD8EA1-1" value="Page" style="whiteSpace=wrap;strokeWidth=2;verticalAlign=top;" vertex="1" parent="1">
          <mxGeometry x="20" y="20" width="2259" height="83" as="geometry" />
        </mxCell>
        <mxCell id="9v7a4TPCFyJCmWpD8EA1-2" value="Header" style="whiteSpace=wrap;strokeWidth=2;" vertex="1" parent="1">
          <mxGeometry x="100" y="45" width="67" height="33" as="geometry" />
        </mxCell>
        <mxCell id="9v7a4TPCFyJCmWpD8EA1-3" value="Navigation" style="whiteSpace=wrap;strokeWidth=2;" vertex="1" parent="1">
          <mxGeometry x="425" y="45" width="91" height="33" as="geometry" />
        </mxCell>
        <mxCell id="9v7a4TPCFyJCmWpD8EA1-4" value="Search Bar" style="whiteSpace=wrap;strokeWidth=2;" vertex="1" parent="1">
          <mxGeometry x="660" y="45" width="92" height="33" as="geometry" />
        </mxCell>
        <mxCell id="9v7a4TPCFyJCmWpD8EA1-5" value="Categories" style="whiteSpace=wrap;strokeWidth=2;" vertex="1" parent="1">
          <mxGeometry x="802" y="45" width="91" height="33" as="geometry" />
        </mxCell>
        <mxCell id="9v7a4TPCFyJCmWpD8EA1-6" value="Main Content Area" style="whiteSpace=wrap;strokeWidth=2;" vertex="1" parent="1">
          <mxGeometry x="1128" y="45" width="147" height="33" as="geometry" />
        </mxCell>
        <mxCell id="9v7a4TPCFyJCmWpD8EA1-7" value="Sidebar" style="whiteSpace=wrap;strokeWidth=2;" vertex="1" parent="1">
          <mxGeometry x="1843" y="45" width="69" height="33" as="geometry" />
        </mxCell>
        <mxCell id="9v7a4TPCFyJCmWpD8EA1-8" value="Footer" style="whiteSpace=wrap;strokeWidth=2;" vertex="1" parent="1">
          <mxGeometry x="2128" y="45" width="63" height="33" as="geometry" />
        </mxCell>
        <mxCell id="9v7a4TPCFyJCmWpD8EA1-9" value="Product Image" style="whiteSpace=wrap;strokeWidth=2;" vertex="1" parent="1">
          <mxGeometry x="722" y="172" width="118" height="33" as="geometry" />
        </mxCell>
        <mxCell id="9v7a4TPCFyJCmWpD8EA1-10" value="Product Title" style="whiteSpace=wrap;strokeWidth=2;" vertex="1" parent="1">
          <mxGeometry x="889" y="172" width="107" height="33" as="geometry" />
        </mxCell>
        <mxCell id="9v7a4TPCFyJCmWpD8EA1-11" value="Product Description" style="whiteSpace=wrap;strokeWidth=2;" vertex="1" parent="1">
          <mxGeometry x="1047" y="172" width="156" height="33" as="geometry" />
        </mxCell>
        <mxCell id="9v7a4TPCFyJCmWpD8EA1-12" value="Price" style="whiteSpace=wrap;strokeWidth=2;" vertex="1" parent="1">
          <mxGeometry x="1253" y="172" width="51" height="33" as="geometry" />
        </mxCell>
        <mxCell id="9v7a4TPCFyJCmWpD8EA1-13" value="Add to Cart Button" style="whiteSpace=wrap;strokeWidth=2;" vertex="1" parent="1">
          <mxGeometry x="1353" y="172" width="151" height="33" as="geometry" />
        </mxCell>
        <mxCell id="9v7a4TPCFyJCmWpD8EA1-14" value="Product Reviews" style="whiteSpace=wrap;strokeWidth=2;" vertex="1" parent="1">
          <mxGeometry x="1554" y="172" width="132" height="33" as="geometry" />
        </mxCell>
        <mxCell id="9v7a4TPCFyJCmWpD8EA1-15" value="Related Products" style="whiteSpace=wrap;strokeWidth=2;" vertex="1" parent="1">
          <mxGeometry x="1736" y="172" width="136" height="33" as="geometry" />
        </mxCell>
        <mxCell id="9v7a4TPCFyJCmWpD8EA1-16" value="Filters" style="whiteSpace=wrap;strokeWidth=2;" vertex="1" parent="1">
          <mxGeometry x="1921" y="172" width="60" height="33" as="geometry" />
        </mxCell>
        <mxCell id="9v7a4TPCFyJCmWpD8EA1-17" value="Logo" style="whiteSpace=wrap;strokeWidth=2;" vertex="1" parent="1">
          <mxGeometry x="50" y="172" width="49" height="33" as="geometry" />
        </mxCell>
        <mxCell id="9v7a4TPCFyJCmWpD8EA1-18" value="User Menu" style="whiteSpace=wrap;strokeWidth=2;" vertex="1" parent="1">
          <mxGeometry x="149" y="172" width="89" height="33" as="geometry" />
        </mxCell>
        <mxCell id="9v7a4TPCFyJCmWpD8EA1-19" value="Home" style="whiteSpace=wrap;strokeWidth=2;" vertex="1" parent="1">
          <mxGeometry x="288" y="172" width="56" height="33" as="geometry" />
        </mxCell>
        <mxCell id="9v7a4TPCFyJCmWpD8EA1-20" value="Shop" style="whiteSpace=wrap;strokeWidth=2;" vertex="1" parent="1">
          <mxGeometry x="394" y="172" width="49" height="33" as="geometry" />
        </mxCell>
        <mxCell id="9v7a4TPCFyJCmWpD8EA1-21" value="About" style="whiteSpace=wrap;strokeWidth=2;" vertex="1" parent="1">
          <mxGeometry x="493" y="172" width="58" height="33" as="geometry" />
        </mxCell>
        <mxCell id="9v7a4TPCFyJCmWpD8EA1-22" value="Contact" style="whiteSpace=wrap;strokeWidth=2;" vertex="1" parent="1">
          <mxGeometry x="601" y="172" width="71" height="33" as="geometry" />
        </mxCell>
        <mxCell id="9v7a4TPCFyJCmWpD8EA1-23" value="Footer Links" style="whiteSpace=wrap;strokeWidth=2;" vertex="1" parent="1">
          <mxGeometry x="2032" y="172" width="103" height="33" as="geometry" />
        </mxCell>
        <mxCell id="9v7a4TPCFyJCmWpD8EA1-24" value="Social Media" style="whiteSpace=wrap;strokeWidth=2;" vertex="1" parent="1">
          <mxGeometry x="2184" y="172" width="104" height="33" as="geometry" />
        </mxCell>
        <mxCell id="9v7a4TPCFyJCmWpD8EA1-25" value="Product Image" style="curved=1;startArrow=none;endArrow=block;exitX=-0.002904353498601589;exitY=0.7275506463269418;entryX=0.4968320070686987;entryY=-0.0060605713815400095;rounded=0;" edge="1" parent="1" source="9v7a4TPCFyJCmWpD8EA1-6" target="9v7a4TPCFyJCmWpD8EA1-9">
          <mxGeometry relative="1" as="geometry">
            <Array as="points">
              <mxPoint x="781" y="103" />
            </Array>
          </mxGeometry>
        </mxCell>
        <mxCell id="9v7a4TPCFyJCmWpD8EA1-26" value="Product Title" style="curved=1;startArrow=none;endArrow=block;exitX=-0.002904353498601589;exitY=0.8670744649253616;entryX=0.5066480012697594;entryY=-0.0060605713815400095;rounded=0;" edge="1" parent="1" source="9v7a4TPCFyJCmWpD8EA1-6" target="9v7a4TPCFyJCmWpD8EA1-10">
          <mxGeometry relative="1" as="geometry">
            <Array as="points">
              <mxPoint x="943" y="103" />
            </Array>
          </mxGeometry>
        </mxCell>
        <mxCell id="9v7a4TPCFyJCmWpD8EA1-27" value="Product Description" style="curved=1;startArrow=none;endArrow=block;exitX=0.2901196550006178;exitY=1.0121212583599668;entryX=0.4983649742908967;entryY=-0.0060605713815400095;rounded=0;" edge="1" parent="1" source="9v7a4TPCFyJCmWpD8EA1-6" target="9v7a4TPCFyJCmWpD8EA1-11">
          <mxGeometry relative="1" as="geometry">
            <Array as="points">
              <mxPoint x="1125" y="103" />
            </Array>
          </mxGeometry>
        </mxCell>
        <mxCell id="9v7a4TPCFyJCmWpD8EA1-28" value="Price" style="curved=1;startArrow=none;endArrow=block;exitX=0.7073029720397003;exitY=1.0121212583599668;entryX=0.48776843501072303;entryY=-0.0060605713815400095;rounded=0;" edge="1" parent="1" source="9v7a4TPCFyJCmWpD8EA1-6" target="9v7a4TPCFyJCmWpD8EA1-12">
          <mxGeometry relative="1" as="geometry">
            <Array as="points">
              <mxPoint x="1278" y="103" />
            </Array>
          </mxGeometry>
        </mxCell>
        <mxCell id="9v7a4TPCFyJCmWpD8EA1-29" value="Add to Cart Button" style="curved=1;startArrow=none;endArrow=block;exitX=1.0003269805389197;exitY=0.9159750518519427;entryX=0.5007943033382593;entryY=-0.0060605713815400095;rounded=0;" edge="1" parent="1" source="9v7a4TPCFyJCmWpD8EA1-6" target="9v7a4TPCFyJCmWpD8EA1-13">
          <mxGeometry relative="1" as="geometry">
            <Array as="points">
              <mxPoint x="1429" y="103" />
            </Array>
          </mxGeometry>
        </mxCell>
        <mxCell id="9v7a4TPCFyJCmWpD8EA1-30" value="Product Reviews" style="curved=1;startArrow=none;endArrow=block;exitX=1.0003269805389197;exitY=0.728691764285998;entryX=0.4987779530611905;entryY=-0.0060605713815400095;rounded=0;" edge="1" parent="1" source="9v7a4TPCFyJCmWpD8EA1-6" target="9v7a4TPCFyJCmWpD8EA1-14">
          <mxGeometry relative="1" as="geometry">
            <Array as="points">
              <mxPoint x="1620" y="103" />
            </Array>
          </mxGeometry>
        </mxCell>
        <mxCell id="9v7a4TPCFyJCmWpD8EA1-31" value="Related Products" style="curved=1;startArrow=none;endArrow=block;exitX=0.07084315261917966;exitY=1.0121212583599668;entryX=0.49633226675145764;entryY=-0.0060605713815400095;rounded=0;" edge="1" parent="1" source="9v7a4TPCFyJCmWpD8EA1-7" target="9v7a4TPCFyJCmWpD8EA1-15">
          <mxGeometry relative="1" as="geometry">
            <Array as="points">
              <mxPoint x="1804" y="103" />
            </Array>
          </mxGeometry>
        </mxCell>
        <mxCell id="9v7a4TPCFyJCmWpD8EA1-32" value="Filters" style="curved=1;startArrow=none;endArrow=block;exitX=0.9302782301632451;exitY=1.0121212583599668;entryX=0.5096031188964844;entryY=-0.0060605713815400095;rounded=0;" edge="1" parent="1" source="9v7a4TPCFyJCmWpD8EA1-7" target="9v7a4TPCFyJCmWpD8EA1-16">
          <mxGeometry relative="1" as="geometry">
            <Array as="points">
              <mxPoint x="1952" y="103" />
            </Array>
          </mxGeometry>
        </mxCell>
        <mxCell id="9v7a4TPCFyJCmWpD8EA1-33" value="Logo" style="curved=1;startArrow=none;endArrow=block;exitX=0.1491861993953778;exitY=1.0121212583599668;entryX=0.49715400228694995;entryY=-0.0060605713815400095;rounded=0;" edge="1" parent="1" source="9v7a4TPCFyJCmWpD8EA1-2" target="9v7a4TPCFyJCmWpD8EA1-17">
          <mxGeometry relative="1" as="geometry">
            <Array as="points">
              <mxPoint x="74" y="103" />
            </Array>
          </mxGeometry>
        </mxCell>
        <mxCell id="9v7a4TPCFyJCmWpD8EA1-34" value="User Menu" style="curved=1;startArrow=none;endArrow=block;exitX=0.85975735834388;exitY=1.0121212583599668;entryX=0.49706373321876096;entryY=-0.0060605713815400095;rounded=0;" edge="1" parent="1" source="9v7a4TPCFyJCmWpD8EA1-2" target="9v7a4TPCFyJCmWpD8EA1-18">
          <mxGeometry relative="1" as="geometry">
            <Array as="points">
              <mxPoint x="193" y="103" />
            </Array>
          </mxGeometry>
        </mxCell>
        <mxCell id="9v7a4TPCFyJCmWpD8EA1-35" value="Home" style="curved=1;startArrow=none;endArrow=block;exitX=-0.0019488177456698575;exitY=0.8775442598513277;entryX=0.49866771697998047;entryY=-0.0060605713815400095;rounded=0;" edge="1" parent="1" source="9v7a4TPCFyJCmWpD8EA1-3" target="9v7a4TPCFyJCmWpD8EA1-19">
          <mxGeometry relative="1" as="geometry">
            <Array as="points">
              <mxPoint x="316" y="103" />
            </Array>
          </mxGeometry>
        </mxCell>
        <mxCell id="9v7a4TPCFyJCmWpD8EA1-36" value="Shop" style="curved=1;startArrow=none;endArrow=block;exitX=0.26878999964511185;exitY=1.0121212583599668;entryX=0.4992267452940649;entryY=-0.0060605713815400095;rounded=0;" edge="1" parent="1" source="9v7a4TPCFyJCmWpD8EA1-3" target="9v7a4TPCFyJCmWpD8EA1-20">
          <mxGeometry relative="1" as="geometry">
            <Array as="points">
              <mxPoint x="418" y="103" />
            </Array>
          </mxGeometry>
        </mxCell>
        <mxCell id="9v7a4TPCFyJCmWpD8EA1-37" value="About" style="curved=1;startArrow=none;endArrow=block;exitX=0.7238782989294825;exitY=1.0121212583599668;entryX=0.49777076984273977;entryY=-0.0060605713815400095;rounded=0;" edge="1" parent="1" source="9v7a4TPCFyJCmWpD8EA1-3" target="9v7a4TPCFyJCmWpD8EA1-21">
          <mxGeometry relative="1" as="geometry">
            <Array as="points">
              <mxPoint x="522" y="103" />
            </Array>
          </mxGeometry>
        </mxCell>
        <mxCell id="9v7a4TPCFyJCmWpD8EA1-38" value="Contact" style="curved=1;startArrow=none;endArrow=block;exitX=0.9946171163202642;exitY=0.8509607342744921;entryX=0.49712261683504344;entryY=-0.0060605713815400095;rounded=0;" edge="1" parent="1" source="9v7a4TPCFyJCmWpD8EA1-3" target="9v7a4TPCFyJCmWpD8EA1-22">
          <mxGeometry relative="1" as="geometry">
            <Array as="points">
              <mxPoint x="636" y="103" />
            </Array>
          </mxGeometry>
        </mxCell>
        <mxCell id="9v7a4TPCFyJCmWpD8EA1-39" value="Footer Links" style="curved=1;startArrow=none;endArrow=block;exitX=0.01635050844295562;exitY=1.0121212583599668;entryX=0.4963100581493193;entryY=-0.0060605713815400095;rounded=0;" edge="1" parent="1" source="9v7a4TPCFyJCmWpD8EA1-8" target="9v7a4TPCFyJCmWpD8EA1-23">
          <mxGeometry relative="1" as="geometry">
            <Array as="points">
              <mxPoint x="2083" y="103" />
            </Array>
          </mxGeometry>
        </mxCell>
        <mxCell id="9v7a4TPCFyJCmWpD8EA1-40" value="Social Media" style="curved=1;startArrow=none;endArrow=block;exitX=0.9899371420135485;exitY=1.0121212583599668;entryX=0.5026556345132681;entryY=-0.0060605713815400095;rounded=0;" edge="1" parent="1" source="9v7a4TPCFyJCmWpD8EA1-8" target="9v7a4TPCFyJCmWpD8EA1-24">
          <mxGeometry relative="1" as="geometry">
            <Array as="points">
              <mxPoint x="2236" y="103" />
            </Array>
          </mxGeometry>
        </mxCell>
        <mxCell id="oOK9o7UUHQRnHBIBCzb2-1" value="&lt;font style=&quot;font-size: 36px;&quot;&gt;WireFrame&lt;/font&gt;" style="text;html=1;align=center;verticalAlign=middle;whiteSpace=wrap;rounded=0;" vertex="1" parent="1">
          <mxGeometry x="-10" y="-60" width="300" height="30" as="geometry" />
        </mxCell>
      </root>
    </mxGraphModel>
  </diagram>
</mxfile>
